<svg xmlns="http://www.w3.org/2000/svg" width="240" height="253" fill="none" viewBox="0 0 240 253">
    <path fill="#C879FF" d="M239.489 144.792c-1.642 22.262-10.868 43.89-27.356 59.001-16.487 15.112-37.793 24.245-59.637 29.193-34.821 7.889-73.088 5.21-103.693-13.124C18.198 201.529-2.92 165.969 1.412 130.65c4.333-35.319 37.655-66.346 73.224-63.2 16.953 1.5 32.524 9.844 49.212 13.194 11.702 2.672 23.942 1.739 35.1-2.675 18.182-7.405 44.584-6.35 57.104 2.96 12.52 9.312 26.847 17.652 23.437 63.863z" opacity=".2"/>
    <path fill="#11122D" d="M77.366 227.651c-1.086-.433-2.054-1.115-2.826-1.99-1.061-1.214-1.58-2.806-1.438-4.41.214-2.48.467-5.364.828-9.125.087-.867-.176-1.734-.732-2.408-.556-.674-1.359-1.099-2.23-1.181-1.754-.135-3.294 1.155-3.461 2.9-.249 2.601-1.175 13.203-1.437 16.214h11.296z"/>
    <path fill="#CEC6B2" d="M66.003 228.454c-.058.589.137 1.176.536 1.614.4.439.966.689 1.56.69l8.835.005c.721 0 1.195-1.701.792-2.968-.124-.046-.243-.095-.36-.143H66.073l-.07.802z"/>
    <path fill="#FFB096" d="M111.148 143.441c-6.931-2.522-12.128-8.343-13.834-15.496l-.623-2.622c-.223-.94.073-1.926.779-2.589.705-.662 1.71-.9 2.639-.623.929.278 1.638 1.027 1.861 1.967l.623 2.621c1.32 5.529 5.406 9.99 10.811 11.804l10.22 3.437c.918.309 1.601 1.083 1.791 2.03.19.947-.141 1.922-.869 2.56-.728.637-1.742.839-2.66.53l-10.22-3.437c-.174-.058-.347-.119-.518-.182z"/>
    <path fill="#F7FAEF" d="M101.813 124.137l-2.329-10.281c-.2-.839-.778-1.54-1.566-1.897-.789-.358-1.698-.332-2.465.069l-5.214 2.731 3.069 13.509"/>
    <path fill="#FFB096" d="M131.508 142.313c.14 1.141-.336 2.27-1.251 2.97-.914.699-2.132.865-3.202.435-.579-.23-1.24-.069-1.647.401-1.174 1.366-3.238 1.526-4.609.356s-1.531-3.226-.357-4.592c2.23-2.578 5.858-3.46 9.029-2.194 1.109.438 1.89 1.445 2.037 2.624z"/>
    <path fill="#11122D" d="M111.163 198.615l.259-.631c.468-1.143.379-2.437-.24-3.507-.434-.754-.879-1.594-1.307-2.528-1.22-2.665-1.023-5.761.525-8.251l1.437-2.309c.607-.977.646-2.203.1-3.216-.546-1.013-1.592-1.659-2.746-1.695-1.153-.036-2.238.545-2.845 1.522l-1.873 3.013c-.878 1.446-2.093 2.66-3.542 3.54-.31.183-.592.407-.841.666l-.041.043 11.114 13.353z"/>
    <path fill="#687A96" d="M91.79 149.983l3.89-.959 24.986 1.27c2.289.116 4.342 1.438 5.387 3.47 1.046 2.031.927 4.464-.314 6.384l-14.603 22.608-5.519-3.667L115 158.556l-18.566 4.288c-7.11 1.642-12.676 7.154-14.367 14.229l-1.303-11.265c-.843-7.288 3.88-14.065 11.027-15.825z"/>
    <path fill="#11122D" d="M74.654 138.32l21.03-5.258c-.697 3.052-.927 6.192-.684 9.313l.437 5.555-20.483 1.577v-.294c.01-3.634-.09-7.265-.3-10.893z"/>
    <path fill="#F7FAEF" d="M89.791 116.349l-3.05-.473c-3.7-.576-6.897-2.891-8.59-6.22 2.172.471 4.419.494 6.6.068l5.932.92c1.58.246 2.663 1.722 2.416 3.297-.246 1.576-1.728 2.654-3.309 2.408h.001z"/>
    <path fill="#FFB096" d="M74.583 115.413c-1.08 0-2.057-.638-2.488-1.625L70.877 111c-4.836-11.073-5.768-23.452-2.643-35.12l1.687-6.297c.25-.933.98-1.662 1.915-1.912.936-.251 1.934.014 2.62.696.686.682.954 1.677.704 2.61l-1.686 6.296c-2.795 10.49-1.959 21.611 2.372 31.569l1.218 2.788c.364.835.282 1.796-.218 2.558-.5.761-1.352 1.221-2.265 1.223l.002.002z"/>
    <path fill="#FFB096" d="M71.122 61.327c1.151-.017 2.227.572 2.83 1.55.602.979.642 2.201.104 3.217-.29.548-.2 1.22.228 1.671 1.199 1.316 1.116 3.346-.186 4.56-1.301 1.215-3.34 1.164-4.579-.114-2.34-2.47-2.84-6.153-1.241-9.154.56-1.05 1.65-1.714 2.844-1.73z"/>
    <path fill="#687A96" d="M89.651 163.885c.442-2.808-1.84-4.943 1.005-5.166 3.086-.238 5.395-2.923 5.158-5.998l-.38-4.826-20.46 1.611c0 3.01-.672 6.012-1.152 8.983-1.761 10.89-6.13 49.033-7.871 59.952l11.97.367 11.73-54.923z"/>
    <path fill="#F7FAEF" d="M74.862 104.182l3.52 8.602c.325.8.26 1.705-.175 2.451-.436.746-1.193 1.25-2.051 1.364-3.436.459-6.748-1.459-8.049-4.662l-2.27-5.469"/>
    <path fill="#CEC6B2" d="M100.045 185.259c-.928.961-1.008 2.455-.188 3.509l8.073 10.291c.414.526 1.077.794 1.742.702.665-.092 1.23-.529 1.485-1.147l-11.112-13.355z"/>
    <path fill="#F7FAEF" d="M99.516 116.607c.31-1.345.05-2.758-.72-3.905-.77-1.148-1.981-1.927-3.347-2.155l-8.148-1.582c-6.169 1.972-11.007.588-16.01-2.03l-3.807 3.395 1.647 3.909c1.636 3.428 2.43 7.195 2.317 10.989-.015.137-1.976 17.289-1.554 19.399.42 2.109 1.648 2.721 7.4 2.572 5.752-.148 14.079-.463 17.256-.69 3.177-.227 3.919-1.297 3.283-3.638-.636-2.341-1.697-11.098-1.388-13.189l3.071-13.075z"/>
    <path fill="#FFB096" d="M85.302 98.816c-1.412.24-2.464 1.432-2.52 2.859l-.522 9.848 1.959 1.369c.655.458 1.48.604 2.254.401.773-.204 1.417-.738 1.76-1.459l.525-9.928c.046-.896-.318-1.766-.989-2.366-.67-.6-1.577-.866-2.467-.724z"/>
    <path fill="#11122D" d="M74.658 147.206l7.358-.426 13.597-.787.135 3.339-20.97 1.214-.12-3.34z"/>
    <rect width="4.616" height="3.342" fill="#7A7F87" rx="1.671" transform="rotate(176.682 42.578 76.233) skewX(.024)"/>
    <path fill="#11122D" d="M87.76 120.914c0 .528-.431.957-.962.956-.53 0-.96-.429-.96-.957 0-.529.43-.957.96-.957.256-.001.5.1.68.28.18.18.282.424.282.678zM87.76 129.48c0 .529-.43.958-.961.958-.53 0-.961-.429-.961-.958 0-.529.43-.957.96-.957.531 0 .962.428.962.957zM87.76 138.689c0 .529-.431.957-.962.957-.53-.001-.96-.429-.96-.958 0-.529.43-.957.96-.957.256 0 .5.101.68.28.18.18.282.424.282.678z"/>
    <path fill="#F7FAEF" d="M85.758 112.779l-4.175-5.619-3.223 3.597 3.76 5.951 3.642-1.593 3.942 1.29.843-5.765-1.774-1.373-3.015 3.512z"/>
    <path fill="#D9D1BD" d="M85.757 112.779l-3.64 3.929 7.578-.303-3.938-3.626zM75.991 126.149l2.527.93c.233.085.488.085.72 0l2.527-.93c.41-.15.682-.539.681-.973v-5.305c0-.573-.466-1.037-1.04-1.037H76.35c-.575 0-1.04.464-1.04 1.037v5.305c-.001.434.27.823.68.973z"/>
    <path fill="#ED9983" d="M200.447 202.235c-2.8-7.933-4.273-16.27-4.362-24.679-2.328-.902-4.443-2.274-6.213-4.031-.409 10.46 1.171 20.901 4.656 30.775l5.066 14.41c.361 1.067 1.269 1.859 2.378 2.072 1.109.214 2.248-.184 2.981-1.04.733-.857.947-2.041.56-3.098l-5.066-14.409z"/>
    <path fill="#410E59" d="M194.819 211.209c1.596.352 3.259.249 4.8-.296 1.667-.446 3.22-1.244 4.551-2.339 0 0-4.067-14.313-4.998-19.379-.93-5.067-2.028-7.675-.46-14.89 1.569-7.215 3.049-17.283 1.368-19.595-1.682-2.311-5.837-2.968-8.073 4.001-2.236 6.97-3.292 26.173-2.685 30.484.606 4.31 5.497 22.014 5.497 22.014z"/>
    <path fill="#D9D1BD" d="M194.771 117.044c-.664-.447-1.495-.569-2.259-.332-.764.237-1.379.807-1.671 1.55l-5.868 14.975c-2.273 5.795-4.959 11.421-8.038 16.834l-5.234 9.195c-.464.815-.456 1.815.021 2.623.476.808 1.349 1.302 2.29 1.295.941-.008 1.806-.514 2.27-1.33l5.235-9.196c3.202-5.632 5.995-11.485 8.358-17.514l5.869-14.976c.446-1.14.042-2.436-.973-3.124z"/>
    <path fill="#FFB096" d="M175.273 157.351c1.091.369 1.906 1.282 2.146 2.404.24 1.123-.13 2.288-.975 3.068-.456.421-.594 1.083-.343 1.649.722 1.643-.029 3.558-1.678 4.277-1.648.719-3.57-.029-4.292-1.671-1.38-3.108-.62-6.748 1.891-9.048.877-.802 2.124-1.062 3.251-.679z"/>
    <path fill="#D12B5E" d="M210.417 146.286l-20.021-.714-.017 4.371c-.024 6.169 14.904 19.943 14.904 19.943l4.505-5.479c4.032-4.905 4.508-11.814 1.185-17.221l-.556-.9z"/>
    <path fill="#D12B5E" d="M210.416 146.286c-1.971-3.639-2.03-8.009-.16-11.7l1.877-3.703c1.769-3.488 2.017-7.548.688-11.224l-3.238-.291c-4.051-.363-7.858-2.085-10.798-4.884l-2.889-2.754-1.753 5.982c-.714 2.436-1.921 4.699-3.547 6.651-1.549 1.858-1.699 4.505-.372 6.526.714 1.085 1.019 2.387.862 3.675-.446 3.653-.677 7.328-.691 11.008 3.363 2.365 7.657 2.988 11.557 1.676 1.963-.66 4.021-.991 6.092-.978l2.372.016z"/>
    <path fill="#FFB096" d="M205.851 124.193l2.897-4.933c-3.64-.496-7.04-2.093-9.739-4.576l-1.738 5.667c-.771 2.51.642 5.168 3.159 5.942 2.077.64 4.323-.23 5.421-2.1z"/>
    <path fill="#ED9983" d="M193.721 225.456c-.189-1.017.105-2.064.796-2.836 1.711-1.914 3.116-4.077 4.169-6.415l.308-.679 3.193-.177c1.213-.067 2.366.529 3.01 1.555l.026.043c.597.945.408 2.184-.445 2.91l-8.379 7.074c-.429.362-1.02.469-1.55.281-.53-.188-.92-.643-1.023-1.194l-.105-.562z"/>
    <path fill="#FFB096" d="M207.78 214.645c-.324-.341-.447-.825-.323-1.278.859-3.248 1.146-6.62.85-9.965l-.058-.644 2.914-1.851c1.16-.737 2.631-.786 3.838-.129 1.079.589 1.563 1.875 1.138 3.025l-2.483 6.717c-.761 2.058-2.381 3.686-4.441 4.461-.503.183-1.067.051-1.436-.336h.001z"/>
    <path fill="#FFB096" d="M214.847 200.347l-24.083-15.565c-1.704-1.093-2.632-3.06-2.388-5.065.268-2.023 1.638-3.731 3.558-4.438-1.757-1.287-3.266-2.879-4.454-4.701-3.344 2.099-5.383 5.752-5.408 9.689-.025 3.938 1.967 7.616 5.284 9.756l24.083 15.566c1.452.915 3.373.496 4.308-.94.935-1.436.536-3.355-.895-4.303l-.005.001z"/>
    <path fill="#F7FAEF" d="M197.653 119.11c1.091 1.097 2.399 1.955 3.842 2.52 1.791.588 3.694.763 5.564.51 0 0-1.087 3.553-3.949 4.36-2.439.654-4.995-.542-6.047-2.83-.599-1.685.59-4.56.59-4.56z"/>
    <path fill="#591C72" d="M195.577 175.696c5.617-4.473 12.112-13.944 12.737-16.4.625-2.456-1.723-5.988-4.597-6.239-3.365-.651-7.809 6.933-11.58 11.366s-7.143 8.26-7.143 8.26c-7.143 8.259-2.574 15.405.969 19.11 3.544 3.705 17.454 12.981 17.454 12.981 1.513-1.437 2.854-3.044 3.995-4.789.74-1.159 1.036-2.545.834-3.904 0 0-7.64-6.221-12.669-9.939-5.028-3.719-5.616-5.974 0-10.446z"/>
    <path fill="#D12B5E" d="M190.379 149.946l-3.819 14.112c2.205 2.476 5.069 4.28 8.259 5.204 5.564 1.732 17.103 0 17.103 0s1.761-11.251.91-17.44c-.851-6.189-20.05-4.832-22.453-1.876z"/>
    <path fill="#FFB096" d="M205.989 118.657l3.216.218-2.148 3.264-1.78-1.741.712-1.741z"/>
    <path fill="#D12B5E" d="M171.359 155.427l3.374-4.362 3.641 2.856c1.943 1.493 2.383 4.235 1.007 6.258l-.745.958-7.277-5.71z"/>
    <path fill="#D9D1BD" d="M192.54 121.533s-4.408 2.269-4.038 7.143c.37 4.875 1.414 4.6 1.003 9.822-.412 5.221-4.996 17.656-5.959 20.243l-.961 2.587s4.281 3.173 4.977 3.787c0 0 3.453-10.984 3.897-17.663.443-6.68 1.467-12.622.548-15.951-.918-3.328.056-7.114 1.639-10.341l2.475-4.336-3.102-.106s.058 4.255-.479 4.815z"/>
    <path fill="#231F20" d="M191.132 103.076l1.061-4.34c.35-1.43 1.256-2.663 2.518-3.428 1.262-.764 2.778-.998 4.213-.65l11.52 2.799 1.694 19.911-19.117-.649c-2.345-4.144-3.02-9.021-1.889-13.643z"/>
    <path fill="#FFB096" d="M201.828 122.826c1.504.433 3.075-.432 3.509-1.93l2.296-7.93c.42-1.494-.447-3.045-1.943-3.476-1.496-.43-3.06.422-3.503 1.909l-2.296 7.93c-.209.72-.122 1.493.242 2.148.363.656.973 1.141 1.695 1.349z"/>
    <path fill="#FFB096" d="M207.257 90.24c-2.497-.607-5.134-.2-7.33 1.131-2.196 1.331-3.771 3.477-4.379 5.965-.697 2.854-1.392 5.469-1.568 6.408-.953 5.074.141 7.634 3.184 10.138 7.489 1.819 14.857-2.237 16.143-7.57l1.076-4.424c1.255-5.177-1.933-10.388-7.126-11.649z"/>
    <path fill="#231F20" d="M207.69 86.86c3.159.768 5.883 2.754 7.572 5.522 1.689 2.769 2.205 6.092 1.435 9.24l-.75 3.064-6.99-1.698c-4.117-1.002-7.045-4.634-7.14-8.856-1.9 3.458-5.775 5.354-9.683 4.738l.745-3.034c.769-3.147 2.762-5.861 5.54-7.544 2.777-1.683 6.112-2.198 9.271-1.431z"/>
    <path fill="#231F20" d="M202.75 92.056c-.791-1.048-.917-2.453-.326-3.624.591-1.172 1.798-1.909 3.114-1.901 2.423.016 4.817.532 7.03 1.516 4.839 2.139 7.511 7.366 6.402 12.524-.667 1.96-1.594 3.821-2.758 5.535l-3.895-1.286-9.567-12.764z"/>
    <path fill="#231F20" d="M211.62 108.306c-.345 2.619-1.737 4.987-3.861 6.568-1.222.909-1.971 2.317-2.039 3.836l5.575.26c3.634.17 6.737-2.586 6.983-6.203l.94-13.854-6.422.474-1.176 8.919z"/>
    <path fill="#FFB096" d="M212.822 103.741c-1.723-.419-3.46.633-3.88 2.35l-.76 3.106 3.12.758c1.722.418 3.458-.634 3.878-2.35.42-1.716-.636-3.446-2.358-3.864z"/>
    <path fill="#11122D" d="M199.036 109.681c.157-.285.44-.479.763-.525.082-.011.147-.075.159-.156.012-.082-.032-.161-.107-.195-.265-.123-.467-.349-.56-.625-.108-.323-.375-.567-.707-.648-.331-.08-.681.014-.926.251-.21.203-.494.311-.786.298-.083-.004-.158.047-.185.125-.027.078.001.164.069.211.266.189.427.491.435.817.011.442.319.823.75.928.432.104.881-.092 1.095-.481z"/>
    <path fill="#050505" d="M205.173 101.877c-.07-.148-.171-.279-.297-.384l-.051-.043c-.031-.025-.036-.028-.012-.011-.036-.026-.074-.051-.113-.073-.039-.023-.078-.044-.119-.063l-.061-.027c.024.009.026.01 0 0-.152-.059-.314-.084-.475-.075-.047 0-.093.006-.139.012.042-.005-.073.015-.082.018-.045.011-.09.024-.134.039-.012.004-.117.048-.082.031-.157.088-.355.04-.453-.11-.094-.155-.045-.357.11-.451.903-.453 2.003-.1 2.471.792.09.156.042.354-.11.451-.155.094-.357.045-.453-.109v.003zM197.448 100.036c-.046-.082-.095-.157-.147-.232l-.035-.05s-.052-.067-.03-.04c.022.028-.019-.02-.022-.025l-.052-.056c-.031-.033-.064-.064-.097-.095l-.046-.04c-.018-.014-.054-.04-.016-.013-.072-.049-.149-.091-.229-.127.068.03-.011 0-.039-.009s-.076-.014-.113-.024c-.037-.009.062 0 0 0h-.051c-.039 0-.077.005-.115.006-.039.001.057-.014 0 0l-.049.012c-.021.005-.041.011-.061.019-.02.007-.058.025-.019.006.039-.019-.026.016-.028.017l-.042.026c-.032.02-.012.01.006-.007-.018.017-.038.034-.055.052-.079.096-.206.14-.328.114-.122-.027-.219-.12-.25-.24-.031-.121.01-.25.104-.331.328-.315.807-.417 1.236-.264.455.183.827.525 1.048.962.076.153.022.339-.125.428-.146.088-.337.051-.439-.087l-.006-.002z"/>
    <path fill="#CC6E7C" d="M199.924 101.279c.092.968.069 2.193-1.012 2.596-.233.045-.447.156-.616.321-.126.187-.159.422-.089.636.214.475.74.727 1.247.598.236-.034.248.338.01.371-.539.097-1.089-.101-1.441-.519-.287-.386-.296-.911-.025-1.307.154-.186.362-.32.596-.384.28-.068.53-.228.709-.454.301-.567.389-1.222.248-1.847-.022-.239.35-.248.372-.011h.001z"/>
    <path fill="#231F20" d="M197.68 101.84c-.141-.464-.517-.818-.989-.933-.472-.115-.97.028-1.309.374-.227.226.131.568.357.343.216-.22.534-.311.835-.238.301.073.541.299.631.595.045.123.179.19.304.152.126-.037.201-.166.171-.293zM205.235 104.098c-.053-.679-.507-1.261-1.154-1.48-.647-.219-1.362-.032-1.819.474-.215.235.141.578.357.343.317-.364.823-.505 1.284-.358.462.147.791.555.837 1.035.031.315.527.303.496-.014h-.001z"/>
    <path fill="#D9D1BD" d="M214.174 119.85c1.879.916.16 8.411-1.339 11.561-1.499 3.149-3.237 6.827-2.188 10.121 1.049 3.293 3.764 9.001 3.527 16.203-.236 7.202-.509 11.734-.509 11.734-2.089 1.019-4.314 1.733-6.607 2.119-3.507.524-5.002 0-5.002 0s2.668-15.617 2.258-23.66c-.409-8.042 4.902-26.154 4.891-29.048 1.699.05 3.377.378 4.969.97z"/>
    <path fill="#FFB096" d="M200.015 137.572c-.233 2.253-2.251 3.894-4.514 3.669l-1.241-.055c-2.273-.062-4.066-1.946-4.009-4.211.232-2.254 2.251-3.895 4.514-3.669l1.241.054c2.273.063 4.066 1.947 4.009 4.212z"/>
    <path fill="#FFB096" d="M197.047 133.114c1.539.635 2.444 1.979 2.022 2.991-.422 1.011-2.013 1.323-3.553.687-1.539-.635-2.444-1.979-2.022-2.991.423-1.011 2.014-1.324 3.553-.687zM191.088 139.167c-.386-.009-.745.192-.938.525-.193.333-.187.744.014 1.071.201.328.566.52.951.501l3.63-.022h.017c.386.01.745-.192.938-.524.193-.333.187-.744-.014-1.072-.201-.328-.566-.519-.951-.5l-3.63.021h-.017z"/>
    <path fill="#FFB096" d="M190.147 137.185c-.386-.009-.745.192-.938.525-.192.332-.187.743.014 1.071.201.328.566.52.951.5l3.63-.021h.017c.386.009.746-.192.938-.524.193-.333.188-.744-.013-1.072-.201-.328-.566-.52-.951-.501l-3.631.022h-.017z"/>
    <path fill="#FFB096" d="M189.599 135.195c-.385-.009-.745.192-.938.525-.192.332-.187.743.014 1.071.201.328.566.52.951.5l3.631-.021h.017c.386.009.745-.192.938-.525.193-.333.187-.744-.014-1.071-.201-.328-.566-.52-.951-.5l-3.63.021h-.018z"/>
    <path fill="#FFB096" d="M190.131 133.182c-.385-.009-.745.192-.938.525-.192.332-.187.743.014 1.071.201.328.566.52.951.5l3.631-.021h.017c.386.009.745-.192.938-.525.193-.332.187-.744-.014-1.071-.201-.328-.566-.52-.951-.5l-3.63.021h-.018z"/>
    <path fill="#FFB096" d="M198.328 139.314c.048-.001.096-.004.144-.01.7-.11 1.298-.56 1.595-1.201.055-.135.407-3.362-3.49-5.476-.445-.888-.516-1.916-.195-2.855.136-.267.145-.581.023-.855-.121-.274-.36-.479-.651-.557-.673-.127-1.342.239-1.595.873-.512 1.523-.477 3.176.1 4.675.147.243.371.43.636.534 1.671.541 2.721 2.19 2.499 3.927-.105.55.33.954.934.945z"/>
    <path fill="#FFC7B8" d="M197.636 133.058c-.46-.232-.834-.605-1.066-1.063-.265-.67-.1-3.103-.205-3.134-.104-.031-.553 2.575-.065 3.422.487.846 1.463 1.188 2.144 1.845.64.806 1.178 1.688 1.603 2.624l.191-.768c-.518-1.236-1.433-2.265-2.602-2.926z"/>
    <path fill="#DD8B6B" d="M190.716 139.637c1.195.199 2.421.101 3.568-.287.138-.059.207-.215.156-.356-.05-.141-.202-.22-.346-.179-1.052.356-2.176.447-3.271.264-.151-.021-.292.08-.32.229-.029.149.065.294.213.329zM189.526 137.601c1.425.123 2.86-.048 4.216-.501.138-.059.207-.215.156-.357-.05-.141-.202-.219-.346-.178-1.26.424-2.594.587-3.919.479-.363-.031-.472.527-.107.558v-.001zM189.712 135.437c1.389-.264 2.799-.406 4.214-.422.367-.004.324-.57-.041-.566-1.414.016-2.824.157-4.213.422-.155.016-.27.149-.264.303.012.156.148.273.304.263zM195.674 128.239c-.914.174-1.668.814-1.987 1.685-.309.921-.27 1.922.111 2.816.088.227.446.101.359-.127-.338-.782-.389-1.658-.144-2.474.249-.77.892-1.349 1.685-1.52.24-.04.214-.418-.027-.377l.003-.003z"/>
    <path fill="#E8E3D6" d="M225.696 135.158c-.088-.244-.196-.481-.322-.708-.107-.192-.227-.378-.358-.555l-9.828-13.242c-.864-1.165-2.513-1.41-3.682-.549-1.965 1.383-1.235 4.149-.51 5.257.725 1.108 7.219 9.09 7.219 9.09l-14.852-.229-.024.495-2.124-.083c-.687-.026-1.356.221-1.859.688-.504.467-.799 1.115-.821 1.799-.049 1.43 1.068 2.63 2.502 2.689l2.053.082-.009.202s19.278 2.375 21.937.504c1.987-1.406 1.201-4.146.678-5.44z"/>
    <path fill="#E5457F" d="M203.36 133.573l-5.518-.294-.2 4.612c-.129 2.441 1.67 4.561 4.107 4.839l1.212.064.399-9.221z"/>
    <path fill="#D9D1BD" d="M197.464 222.368c-.808.516-1.874.356-2.492-.375-.528.608-1.117 1.16-1.756 1.65-.98.622-1.582 1.691-1.606 2.849v.037c-.011.701.365 1.353.98 1.694.615.342 1.369.319 1.962-.059l10.914-6.961c1.554-.991 2.023-3.042 1.054-4.607l-9.056 5.772z"/>
    <path fill="#ED9983" d="M206.123 216.072l-1.205-1.298-5.557-1.823c-.341-.112-.715-.053-1.004.159-.29.211-.459.549-.454.907.037 2.927-1.007 5.766-2.934 7.976.619.731 1.685.891 2.492.375l9.056-5.773c-.114-.187-.246-.362-.394-.523z"/>
    <path fill="#FFB096" d="M209.203 211.025c2.313-.74 4.189-2.444 5.143-4.669l2.197-5.13c-.134-.124-.279-.234-.435-.33-1.293-.791-2.917-.818-4.236-.071l-3.162 1.792c-.034.341-.074.681-.119 1.021.075 2.426-.127 4.853-.601 7.234.362.225.806.281 1.213.153z"/>
    <path fill="#D9D1BD" d="M214.898 200.741c.399 1.884.206 3.844-.552 5.615-.954 2.225-2.83 3.929-5.142 4.669-.408.127-.852.071-1.214-.154-.233 1.168-.531 2.323-.892 3.459-.134.396-.096.83.104 1.197.342.612 1.066.902 1.738.696 2.312-.739 4.188-2.443 5.142-4.669l3.111-7.263c.346-.819.274-1.753-.192-2.51-.467-.756-1.271-1.242-2.16-1.304l.057.264z"/>
    <path fill="#5B331E" d="M191.611 226.488c-.203 1.056.338 2.116 1.315 2.574 1.756 1.085 5.556-1.12 6.694-1.89 1.138-.77 4.718-3.473 6.335-4.502 1.198-.695 1.913-1.991 1.862-3.372l-.932-1.891c-.686 2.032-1.963 3.814-3.67 5.12-2.607 1.746-8.956 6.884-11.604 3.961zM207.041 215.064c.074.886.591 1.675 1.374 2.1 1.362.797 3.176-.385 3.801-.873 1.545-1.517 2.836-3.271 3.824-5.195.899-1.996 1.399-4.206 2.069-5.406.462-.784.593-1.718.366-2.598-.1-.495-1.93-1.862-1.93-1.862.304 1.752.083 3.554-.635 5.182-1.199 3.02-2.196 6.006-4.055 7.701-1.86 1.695-3.753 1.872-4.814.951z"/>
    <path fill="#A6722B" d="M37.338 106.446h11.79v20.185h-11.79v-20.185z"/>
    <path fill="#FAC5B0" d="M57.724 141.695c-.083 0-.17 0-.254-.011-.799-.066-1.538-.445-2.055-1.054-.518-.61-.771-1.399-.704-2.194.132-1.581.11-3.17-.065-4.747l-2.648-23.903c-.138-1.078.319-2.146 1.194-2.794.875-.648 2.033-.776 3.03-.333.996.442 1.675 1.385 1.776 2.467l2.649 23.904c.218 1.962.246 3.941.083 5.908-.132 1.557-1.438 2.755-3.006 2.757z"/>
    <path fill="#9A806B" d="M49.689 217.046l-.102 7.881c-.115 1.285-1.204 2.265-2.499 2.249-1.295-.016-2.359-1.023-2.442-2.31l.101-7.882 4.942.062z"/>
    <path fill="#D7974B" d="M42.346 221.412l2.052-70.2c.03-1.897 2.062-3.414 4.544-3.389 2.482.025 4.47 1.587 4.44 3.485l-2.05 70.11-8.986-.006z"/>
    <path fill="#D7974B" d="M40.607 145.286c6.62 0 11.989 5.981 11.989 13.355v2.725h-23.98v-2.725c0-7.374 5.364-13.355 11.99-13.355z"/>
    <path fill="#9A806B" d="M32.137 217.674l-.429 7.965c-.178 1.295-1.325 2.236-2.634 2.161-1.31-.074-2.342-1.139-2.372-2.445l.427-7.934 5.008.253z"/>
    <path fill="#D7974B" d="M25.863 220.897c1.52-23.292 2.533-46.389 3.213-69.733.051-1.886 2.172-3.381 4.739-3.341 2.566.039 4.61 1.611 4.56 3.506-.681 23.338-1.69 46.388-3.212 69.727l-9.3-.159z"/>
    <path fill="#11122D" d="M55.676 226.264c-1.288 0-2.37-.967-2.508-2.243v-.407c0-.823-.67-1.489-1.495-1.49h-.898c-.28 0-.547.111-.744.307-.198.197-.309.464-.308.742v.287c-.052.941-.83 1.679-1.777 1.684H45.41c-.899 0-1.628.725-1.628 1.621v3.668h18.242v-.957c-.002-1.773-1.444-3.21-3.224-3.212h-3.125zM37.978 226.235c-1.296-.001-2.385-.974-2.525-2.258v-.413c0-.828-.674-1.5-1.506-1.5h-1.724c-.281 0-.55.111-.75.309-.199.199-.31.467-.31.748v.288c-.052.948-.836 1.692-1.788 1.697H26.82c-.435-.001-.851.171-1.159.477-.307.306-.48.721-.48 1.154v3.694h16.73v-.963c0-.858-.341-1.681-.95-2.288-.609-.606-1.434-.947-2.295-.947l-.689.002z"/>
    <path fill="#BE873C" d="M38.765 111.637l-4.248-6.762 2.629-2.442h6.42l-3.756 2.882 2.483 2.686-3.528 3.636z"/>
    <path fill="#A6722B" d="M34.537 104.913l11.415 18.191V104.87c3.127.294 6.226.831 9.27 1.607l-.084 13.678s.554 34.553 0 39.464c-.553 4.91-29.311 5.36-29.39 0-.079-5.361.867-17.653.867-17.653l-.864-21.811-.083-13.678c2.913-.743 5.877-1.266 8.869-1.564z"/>
    <path fill="#11122D" d="M40.916 117.037c0 .603.49 1.093 1.096 1.093.606 0 1.097-.489 1.097-1.092 0-.604-.49-1.093-1.096-1.094-.605.001-1.096.49-1.097 1.093zM40.916 127.322c0 .603.49 1.093 1.096 1.093.606 0 1.097-.489 1.097-1.092 0-.604-.49-1.093-1.096-1.094-.605.001-1.096.49-1.097 1.093zM40.695 139.36c0 .604.491 1.093 1.097 1.093.605 0 1.096-.489 1.096-1.092 0-.603-.49-1.093-1.095-1.093-.606 0-1.097.489-1.098 1.092z"/>
    <path fill="#FAC5B0" d="M50.159 158.477c-1.208 0-2.3-.717-2.776-1.823-.475-1.106-.244-2.388.59-3.26 4.001-4.103 6.51-9.423 7.128-15.112-.019-.741.287-1.453.837-1.951s1.291-.732 2.029-.643c1.662.138 2.897 1.591 2.76 3.247-.59 6.972-3.546 13.535-8.382 18.608-.569.598-1.36.936-2.186.934z"/>
    <path fill="#FAC5B0" d="M49.125 159.562c-1.207 0-2.299-.717-2.775-1.823-.476-1.105-.246-2.387.586-3.26l1.035-1.084c.743-.779 1.847-1.104 2.896-.852 1.049.251 1.883 1.042 2.189 2.073.306 1.031.036 2.146-.707 2.925l-1.035 1.085c-.57.598-1.361.937-2.189.936zM14.155 133.222c-1.502-.413-2.44-1.898-2.167-3.427.681-3.851 1.992-7.564 3.88-10.992l4.133-7.512c.802-1.457 2.637-1.991 4.1-1.192 1.463.798 1.998 2.627 1.197 4.085l-4.133 7.512c-1.57 2.853-2.66 5.943-3.228 9.147-.139.786-.586 1.485-1.242 1.942-.656.457-1.468.636-2.256.498-.098-.016-.193-.036-.284-.061z"/>
    <path fill="#FAC5B0" d="M44.148 161.609c-.517-.516-.808-1.214-.808-1.943 0-.728.29-1.427.808-1.942l2.326-2.318c1.077-1.073 2.822-1.073 3.898 0 .517.515.808 1.213.808 1.942 0 .729-.29 1.427-.808 1.942l-2.326 2.319c-1.077 1.072-2.822 1.072-3.898 0z"/>
    <path fill="#BE873C" d="M44.707 111.223l3.89-6.185-2.406-2.234h-5.876l3.438 2.639-2.273 2.458 3.227 3.322z"/>
    <path fill="#FAC5B0" d="M44.633 103.604c0 2.008-1.634 3.635-3.649 3.635-2.014-.002-3.645-1.628-3.646-3.635v-12.17c0-2.006 1.633-3.633 3.646-3.633.968 0 1.896.382 2.58 1.063.684.682 1.069 1.606 1.069 2.57v12.17z"/>
    <path fill="#BE873C" d="M26.29 106.276s-2.862-.611-4.139.869c-2.44 2.941-4.652 6.064-6.615 9.341-1.42 2.687-2.147 4.444-2.147 4.444 1.984-.267 4.001.122 5.742 1.107l3.043 1.657s3.595-7.46 5.12-10.742c1.524-3.282.167-5.83-1.005-6.676zM54.947 124.075c1.118-.194 2.258-.235 3.387-.122l2.175.157s-1.738-14.006-2.392-15.562c-.655-1.556-1.655-2.155-2.235-2.098-.31.035-.623.046-.935.031v17.594z"/>
    <path fill="#11122D" d="M42.988 75.778h7.185c2.685 0 4.705 2.226 4.194 4.628l-1.282 6.02c-.27 1.27-1.396 2.18-2.7 2.18h-7.397V75.778z"/>
    <path fill="#11122D" d="M51.064 86.99c-.075 0-.136-.061-.136-.136 0-.075.06-.136.136-.136h3.456c.075 0 .136.06.136.136 0 .075-.06.136-.136.136h-3.456z"/>
    <path fill="#FAC5B0" d="M43.133 102.225c-2.9 0-5.681-1.149-7.731-3.192-2.05-2.044-3.203-4.815-3.202-7.705V79.333h16.113c1.94 0 3.514 1.567 3.514 3.5V96.09c0 1.627-.649 3.187-1.803 4.338-1.155 1.151-2.721 1.797-4.354 1.797l-2.537.001z"/>
    <path fill="#11122D" d="M47.325 70.046H45.31c-3.593 0-7.048 1.38-9.647 3.851l-2.122 2.018c-1.664.001-3.243.726-4.325 1.985-1.082 1.26-1.558 2.926-1.303 4.564l1.285 8.263h5.959c.716 0 1.297-.579 1.297-1.293v-2.177c.298-1.666 1.75-2.88 3.448-2.883L39.1 80.5h6.5c2.08.033 4.06-.888 5.37-2.499 1.264-1.414 1.57-3.438.78-5.16-.788-1.723-2.524-2.819-4.424-2.794z"/>
    <path fill="#327646" fill-rule="evenodd" d="M41.016 91.492H42.6c1.162.002 2.157-.831 2.354-1.973l.316-1.814c.086-.492-.05-.996-.373-1.378-.323-.382-.799-.602-1.3-.6h-3.613c-.505-.001-.985.224-1.307.612-.322.388-.454.9-.359 1.394l.35 1.825c.216 1.122 1.2 1.933 2.347 1.934zm-2.129-4.979c.27-.326.673-.515 1.098-.514l3.61.004c.421-.002.82.182 1.092.502.272.32.387.743.316 1.156l-.316 1.814c-.175 1.011-1.056 1.75-2.086 1.748h-1.586c-1.016 0-1.888-.72-2.08-1.714l-.35-1.825c-.08-.416.032-.845.302-1.171zM49.642 91.492h1.586c1.163.003 2.157-.83 2.354-1.973l.316-1.814c.087-.492-.05-.996-.372-1.378-.323-.382-.799-.602-1.3-.6h-3.613c-.506-.001-.985.224-1.307.612-.323.388-.454.9-.36 1.394l.35 1.825c.216 1.122 1.2 1.933 2.346 1.934zm-2.128-4.979c.27-.326.673-.515 1.098-.514l3.61.004c.42-.002.82.182 1.092.502.271.32.387.743.315 1.156l-.316 1.814c-.175 1.011-1.056 1.75-2.086 1.748h-1.585c-1.016-.001-1.888-.72-2.08-1.714l-.349-1.825c-.08-.415.03-.845.301-1.171z" clip-rule="evenodd"/>
    <path fill="#327646" d="M47.147 88.2c-.063 0-.118-.043-.132-.105-.097-.42-.472-.719-.904-.72-.433-.001-.81.296-.909.715-.017.073-.09.118-.163.101-.073-.017-.119-.09-.102-.162.129-.542.615-.925 1.174-.923.559 0 1.043.386 1.169.928.008.036.002.073-.017.104-.02.031-.05.053-.086.061-.01.002-.02.002-.03.001zM30.922 86.99c-.075 0-.136-.06-.136-.135 0-.075.061-.136.136-.136h7.366c.075 0 .136.06.136.136 0 .075-.061.135-.136.135h-7.366z"/>
    <path fill="#FAC5B0" d="M31.769 87.425c-1.666-.034-3.073 1.226-3.217 2.88-.043.833.259 1.647.835 2.252.577.605 1.378.946 2.215.945h2.362v-3.89c0-1.207-.983-2.187-2.195-2.187z"/>
    <path fill="#fff" d="M41.162 96.158c.78 1.177 2.102 1.884 3.518 1.88 1.416-.005 2.734-.72 3.506-1.903.1-.151.11-.345.024-.505-.085-.16-.25-.26-.432-.263h-6.225c-.187.003-.356.11-.439.276-.082.167-.064.366.048.515z"/>
    <path fill="#11122D" d="M47.776 95.365h-.232l-.325 1.032.325.488c.242-.226.456-.478.641-.752.1-.151.11-.345.025-.505-.085-.16-.252-.262-.434-.263z"/>
    <ellipse cx="42.711" cy="89.001" fill="#231F20" rx=".722" ry="1.035"/>
    <path fill="#050505" d="M41.594 87.137c.097-.122.22-.22.36-.289l.058-.029c.035-.015.039-.018.013-.006.04-.016.08-.03.122-.042.041-.013.083-.023.125-.032l.063-.011c-.025 0-.027 0 0 0 .153-.02.308-.007.456.038.042.012.082.025.125.042-.037-.015.065.03.077.036.038.02.076.042.114.066.01.007.098.07.07.048.124.117.319.117.444 0 .121-.123.121-.32 0-.443-.734-.623-1.833-.543-2.468.178-.119.124-.119.319 0 .443.123.12.32.12.444 0h-.003zM48.686 87.168c.06-.063.122-.124.188-.182l.045-.038s.064-.05.037-.03l.027-.018.06-.04c.037-.024.074-.046.112-.067l.051-.026c.021-.01.059-.025.018-.008.078-.03.158-.052.24-.066-.069.013.011 0 .04 0h.11c.038 0-.058-.013 0 0l.048.01c.036.008.07.021.105.03.036.01-.05-.026 0 0l.043.022.052.03c.016.011.048.037.016.011-.031-.025.021.021.023.022l.033.034c.025.025.009.012-.004-.008l.038.06c.055.101.16.164.275.165.115 0 .22-.062.277-.161.055-.1.052-.222-.009-.32-.233-.364-.653-.567-1.085-.522-.462.067-.885.3-1.188.655-.115.123-.111.315.008.434.12.12.312.123.436.008l.004.005z"/>
    <ellipse cx="49.354" cy="88.758" fill="#231F20" rx=".722" ry="1.035"/>
    <path fill="#CC6E7C" d="M45.876 88.34c-.305.875-.561 2.014.35 2.63.181.125.406.222.496.436.074.202.051.427-.062.61-.306.393-.85.508-1.29.274-.212-.082-.304.258-.095.34.477.213 1.032.153 1.453-.156.353-.292.481-.776.319-1.204-.1-.207-.263-.378-.465-.489-.244-.126-.438-.329-.554-.577-.151-.592-.085-1.22.187-1.767.075-.215-.267-.308-.342-.094l.003-.004z"/>
    <path fill="#BE873C" d="M47.317 121.559l2.428.894c.224.082.469.082.693 0l2.428-.894c.393-.144.654-.517.654-.935v-5.096c0-.551-.448-.997-1.001-.997h-4.856c-.553 0-1 .446-1 .997v5.096c0 .418.26.791.654.935zM31.532 121.346l2.358 1.062c.217.098.462.115.69.049l2.484-.719c.402-.117.69-.471.719-.888l.363-5.083c.019-.264-.068-.524-.242-.724-.174-.2-.42-.322-.685-.341l-4.844-.344c-.264-.019-.526.068-.726.241-.2.173-.324.419-.343.682l-.363 5.084c-.03.418.205.81.589.981z"/>
    <path fill="#E09E4E" d="M33.5 104.531c-1.124.006-2.245.119-3.348.338-1.987.373-2.814.54-2.765 1.066.073.462.465.808.935.825 1.148-.353 2.32-.629 3.505-.825 1.55-.165 2.016.165 2.295 0 .279-.165.124-1.217-.621-1.404zM48.944 104.822c1.124.006 2.246.119 3.35.339 1.985.372 2.813.54 2.763 1.065-.073.462-.465.808-.934.825-1.149-.353-2.32-.629-3.505-.825-1.55-.165-2.016.165-2.295 0-.279-.165-.124-1.218.62-1.404z"/>
    <path fill="#FAC5B0" d="M44.054 119.861c-.08.824-.498 1.579-1.155 2.085l-5.841 4.518c-6.349 4.896-14.152 7.546-22.18 7.533-1.668-.005-3.016-1.357-3.01-3.02.005-1.662 1.361-3.005 3.03-3 6.679.01 13.172-2.195 18.455-6.267l5.841-4.519c.952-.735 2.253-.837 3.308-.257 1.055.58 1.664 1.729 1.548 2.924l.004.003z"/>
    <path fill="#FAC5B0" d="M50.665 116.968c.059-.167.103-.338.133-.511.14-.817-.053-1.656-.534-2.332-.481-.675-1.212-1.133-2.032-1.271-3.417-.515-6.81 1.065-8.607 4.006-.602.94-.654 2.13-.138 3.119.516.99 1.524 1.63 2.642 1.679 1.119.049 2.178-.5 2.78-1.44.46-.805 1.343-1.275 2.27-1.208 1.506.257 2.979-.606 3.486-2.042z"/>
    <rect width="10.604" height="2.173" fill="#FAC5B0" rx="1.086" transform="matrix(.79504 -.60656 .6093 .79294 41.855 114.598)"/>
    <rect width="7.255" height="2.177" fill="#FAC5B0" rx="1.089" transform="rotate(-81.513 87.746 35.527) skewX(.059)"/>
    <path fill="#231F20" d="M147.912 91.341l.029-.34c-.016.113-.025.226-.029.34z"/>
    <path fill="#231F20" d="M174.212 116.274c-2.529-2.062-4.4-6.292-4.928-12.091-.528-5.799-1.87-13.689-5.086-16.034-1.73-1.376-3.953-1.98-6.144-1.672 0 0-1.672-1.425-4.792 0-3.12 1.424-5.351 4.865-5.351 4.865l4.599 4.757-5.224-1.366s-2.092 9.292-2.462 10.473c-.369 1.181-1.344 2.82-3.795 4.499-2.451 1.679-4.345 5.351-3.1 7.1 1.245 1.748 2.262 1.092 2.262 1.092-.636 1.567 1.625 2.463 1.625 2.463s24.566 4.147 26.267 4.223c1.702.076 2.091-1.88 2.091-1.88 1.192.336 2.461.277 3.615-.169.886-.491 1.425-1.431 1.4-2.441.925.484 2.002.594 3.006.305 1.076-.351 1.401-1.627 1.499-2.398-1.595-.097-3.938-.469-5.482-1.726z"/>
    <path fill="#231F20" d="M158.054 86.477s-3.435-2.735-7.915 1.401c-4.48 4.137-5.007 10.556-5.493 13.667-.513 3.061-2.132 5.828-4.551 7.781-2.113 1.534-2.964 5.673-2.39 7.067.575 1.394 20.349-29.916 20.349-29.916z"/>
    <path fill="#FFB096" d="M150.83 201.812c-.798-.565-1.29-1.466-1.332-2.441-.103-2.416-.578-4.801-1.407-7.073l-.24-.66 2.044-2.212c.777-.839 1.95-1.191 3.062-.919l.046.011c1.028.249 1.717 1.212 1.619 2.262l-1.004 10.276c-.051.527-.38.987-.864 1.208-.483.22-1.047.167-1.481-.14l-.443-.312z"/>
    <path fill="#11122D" d="M154.752 198.151l.365-9.862-3.192.095-.207 5.608c-.055 1.462-1.095 2.703-2.53 3.019l.083 3.569c.034 1.376.605 2.685 1.593 3.648 2.304-1.176 3.791-3.499 3.888-6.077z"/>
    <path fill="#FFB096" d="M148.74 193.644l-18.436-10.755c-4.582-2.967-6.333-8.803-4.138-13.789l10.119-23 12.061 7.933c.49.321.76.886.701 1.467-.058.58-.436 1.081-.98 1.298l-.986.395c-3.052 1.225-5.645 3.369-7.416 6.133l-5.297 8.262c-.898 1.4-.661 3.241.564 4.37l16.248 13.924-2.44 3.762z"/>
    <path stroke="#11122D" stroke-width=".5" d="M152.888 191.791c-1.759-.274-3.494.612-4.299 2.193"/>
    <path fill="#11122D" d="M156.073 188.746c-.382-1.085-1.634-1.695-3.294-1.559-.986.095-1.836.732-2.203 1.649 0 0 1.284.446 1.282 1.417-.001.97.05 6.655.05 6.655l-.767 5.962c-.645.165-1.108.307-1.108.307s.562 1.165 1.313 1.348c1.397.167 2.77-.46 3.556-1.623l.007-.011c.506-.594.833-1.319.943-2.091.345-2.37-.278-4.813.35-7.01.489-1.653.444-3.418-.129-5.044z"/>
    <path fill="#D9D1BD" d="M156.671 111.726l-6.407-1.62-.125 2.987 5.203 1.03 1.329-2.397z"/>
    <path fill="#FFB096" d="M145.713 115.575c-.186.008-.371-.004-.554-.037l-7.101-1.275c-7.167-1.278-13.059-6.36-15.357-13.245l-2.792-8.37c-.432-1.298.273-2.7 1.576-3.13 1.302-.431 2.709.272 3.141 1.57l2.79 8.37c1.725 5.164 6.146 8.975 11.523 9.933l7.1 1.275c1.253.216 2.14 1.34 2.054 2.603-.085 1.264-1.114 2.26-2.385 2.307l.005-.001z"/>
    <path fill="#FFB096" d="M123.727 94.61c.87-.65 1.331-1.708 1.212-2.784-.119-1.077-.8-2.01-1.792-2.454-.534-.242-.856-.795-.8-1.377.134-1.672-1.103-3.141-2.779-3.302-1.675-.16-3.169 1.049-3.357 2.715-.309 3.192 1.458 6.225 4.392 7.542 1.026.462 2.223.331 3.124-.34z"/>
    <path fill="#FF7262" d="M156.2 149.659v-.012c.223-4.076-.337-8.157-1.65-12.024-1.036-3.016-.629-6.339 1.105-9.019l5.251-8.028c.89-1.342.542-3.146-.783-4.064-3.904-2.649-8.253-4.58-12.84-5.701-2.365-.606-4.81.65-5.687 2.921l-3.257 8.592c-.826 2.178-.953 4.557-.363 6.81.628 2.398.711 4.905.242 7.339l-2.342 12.145 20.324 1.041z"/>
    <path fill="#FFB096" d="M150.19 113.356l-.051-.057 2.301-9.215c.21-.833.785-1.526 1.565-1.889.78-.363 1.683-.356 2.458.018 1.223.61 1.85 1.991 1.502 3.309l-2.282 9.142c-1.926.74-4.111.22-5.493-1.308z"/>
    <path fill="#11122D" d="M146.833 158.085c4.921.249 9.114-3.523 9.368-8.426v-.011c.038-.742.044-1.451.035-2.144l-6.843.711c-4.454.461-8.952-.26-13.036-2.091l-.481 2.496c-.122 2.357.701 4.665 2.288 6.417 1.587 1.751 3.808 2.803 6.173 2.922l2.496.126z"/>
    <path fill="#FFB096" d="M166.86 214.734c-.32-.307-.457-.759-.359-1.191.672-3.097.8-6.288.379-9.429l-.083-.605 2.668-1.867c1.062-.744 2.447-.852 3.613-.283 1.042.509 1.553 1.702 1.2 2.804l-2.055 6.432c-.631 1.972-2.089 3.574-3.998 4.391-.466.194-1.004.094-1.368-.256l.003.004z"/>
    <path fill="#FFB096" d="M156.123 146.068l2.464 28.41c.225 2.584.954 5.1 2.148 7.404l12.235 23.624-3.458 2.179-16.039-23.025c-1.784-2.561-3.003-5.47-3.577-8.535l-3.624-19.365c-.623-3.332 1.102-6.659 4.188-8.082l5.663-2.61z"/>
    <path fill="#11122D" d="M172.168 211.135l3.004-9.401-3.1-.761-1.708 5.347c-.446 1.395-1.782 2.313-3.249 2.232l-.877 3.464c-.338 1.335-.14 2.749.552 3.94 2.536-.519 4.593-2.363 5.378-4.821z"/>
    <path fill="#FFB096" d="M169.529 134.481c-1.919.092-3.741-.849-4.77-2.466l-7.592-11.678c-.482-.743-.531-1.685-.127-2.473.404-.787 1.199-1.3 2.085-1.346.887-.045 1.73.385 2.213 1.127l7.591 11.679c.093.162.283.244.466.201.185-.019.335-.157.369-.339l3.768-15.504c.209-.859.862-1.542 1.714-1.792.851-.249 1.772-.027 2.414.583.643.61.91 1.515.701 2.375l-3.768 15.503c-.494 2.109-2.218 3.711-4.365 4.054-.231.04-.464.065-.699.076z"/>
    <path fill="#FFB096" d="M174.212 116.273c-.729-.804-.977-1.933-.651-2.967.326-1.034 1.177-1.819 2.236-2.064.572-.134.995-.616 1.053-1.198.187-1.669 1.686-2.879 3.363-2.716 1.678.164 2.913 1.639 2.773 3.313-.32 3.193-2.641 5.83-5.775 6.562-1.095.258-2.244-.099-2.999-.93zM164.18 96.083c.281-1.44-2.309-2.87-2.722-4.18l-9.783-2.783c-.809 1.072-3.464 2.366-3.747 3.808 0 0-1.306 6.129-1.603 8.193-.629 4.378-.012 7.459 3.042 8.55 3.055 1.09 6.119.077 8.53-1.155 1.544-.795 2.72-2.154 3.283-3.793l3-8.64z"/>
    <path fill="#231F20" d="M147.078 95.408c.018.094.073.177.153.23.08.052.178.07.272.05l.31-.054c1.057-.172 1.994-.774 2.587-1.662l.026-.04c.741-1.102 1.979-1.771 3.31-1.79l1.849-.053c.317 2.073 1.381 3.96 2.992 5.31l1.609 1.375.074.974c.078.699.62 1.258 1.319 1.359l2.261.407 1.266.789.989-3.887-4.833-10.268c-1.621-.589-3.328-.91-5.053-.952-.843-.043-1.671.233-2.317.773l-3.956 1.945c-.991.01-1.849.69-2.084 1.649l-.774 3.845z"/>
    <path fill="#FFB096" d="M162.573 99.467c-1.294-.255-2.551.582-2.809 1.871l-.465 2.335 2.344.463c.837.166 1.699-.126 2.261-.766.563-.639.74-1.529.465-2.334-.274-.805-.959-1.403-1.796-1.569z"/>
    <ellipse fill="#231F20" rx=".996" ry=".695" transform="rotate(-78.711 138.79 -44.767) skewX(.078)"/>
    <path fill="#050505" d="M157.073 97.829c-.069-.133-.167-.25-.286-.34l-.049-.038c-.03-.021-.034-.024-.012-.01-.034-.022-.07-.043-.107-.062-.036-.019-.073-.037-.111-.053l-.058-.022c.023.008.024.008 0 0-.141-.047-.291-.064-.439-.05-.042.004-.085.01-.126.017.038-.006-.067.017-.079.02-.041.012-.083.026-.121.041-.011.005-.106.048-.075.032-.14.088-.324.052-.42-.082-.092-.139-.055-.325.083-.418.809-.45 1.832-.17 2.297.629.089.139.052.323-.083.418-.139.091-.326.054-.42-.082h.006zM150.369 96.535c-.045-.071-.091-.141-.144-.208l-.034-.045s-.051-.058-.029-.034l-.022-.023-.049-.05c-.03-.029-.061-.056-.093-.082l-.044-.035c-.017-.013-.051-.035-.015-.011-.068-.043-.14-.08-.215-.108.064.025-.011 0-.037-.007-.025-.007-.07-.01-.105-.017-.034-.007.057 0 0 0h-.047c-.035 0-.07.007-.105.01-.035.002.051-.015 0 0l-.045.013c-.018.005-.036.012-.053.02-.018.007-.053.025-.018.006.035-.019-.024.015-.025.017l-.038.025c-.029.02-.01.01.005-.006l-.048.05c-.07.087-.182.129-.292.108-.11-.02-.2-.1-.233-.206-.034-.106-.006-.222.073-.302.288-.302.723-.414 1.123-.291.424.15.779.449.999.84.06.09.067.204.019.3-.048.098-.143.161-.251.168-.108.007-.212-.043-.272-.133h-.005z"/>
    <ellipse fill="#231F20" rx=".996" ry=".695" transform="rotate(-78.711 134.782 -41.706) skewX(.078)"/>
    <path fill="#CC6E7C" d="M152.363 98.325c.015.531-.062 1.061-.226 1.567-.125.379-.3.761-.735.834-.107.019-.21.01-.236.134-.01.09.002.18.034.264.06.189.159.364.291.512.263.3.638.479 1.037.495.244.006.274.386.028.38-.446-.008-.874-.177-1.205-.476-.333-.282-.539-.685-.569-1.12-.016-.215.104-.417.301-.508.105-.043.22-.032.325-.068.104-.044.188-.126.233-.229.259-.549.377-1.154.341-1.76-.005-.247.376-.272.382-.027l-.001.002z"/>
    <path fill="#11122D" d="M149.258 103.399c1.651.01 3.285.328 4.818.938.204.081.359.249.424.457.064.209.03.435-.093.615l-.647.949c-.622.912-1.731 1.366-2.816 1.152-1.086-.214-1.938-1.054-2.165-2.133l-.234-1.112c-.045-.213.01-.435.148-.603.139-.169.347-.265.565-.263z"/>
    <path fill="#91414D" d="M152.897 107.172c-.771.454-1.715.509-2.533.148.681-.688 1.775-.752 2.533-.148z"/>
    <path fill="#fff" d="M149.187 104.211c-.033-.268-.03-.539.008-.807.022 0 .041-.007.063-.007 1.651.01 3.285.329 4.818.939.204.08.359.248.424.457.064.208.03.434-.093.615l-.134.197-5-.99c-.038-.132-.067-.267-.086-.404z"/>
    <path fill="#231F20" d="M161.265 88.149l4.695 2.74.138 7.528-6.262-9.476 1.429-.792zM147.503 95.04s4.008-.118 5.793-1.035c1.784-.917 2.626-4.074 2.626-4.074l-5.799.243-2.62 4.866z"/>
    <path fill="#D12B5E" d="M162.573 99.467s-.281-9.096-6.19-10.076c-5.909-.98-8.69 4.618-8.69 4.618s1.233-6.634 9.318-6.103c8.084.531 6.547 12.011 6.547 12.011-.272-.25-.617-.407-.985-.45z"/>
    <path fill="#2A3352" d="M137.329 139.064s-11.572 21.295-13.785 26.866c-2.213 5.572-2.76 9.199 3.355 14.945 6.115 5.745 9.886 6.919 9.886 6.919s5.009-5.207 10.511-3.349c5.502 1.859 15.155 14.907 15.763 15.797.607.891 7.117-1.76 9.476-6.179 1.437-2.747 2.334-5.742 2.642-8.824 0 0-11.543-4.948-13.955-14.184-2.411-9.236-4.004-25.859-4.449-28.621-.294-1.748-.766-3.461-1.407-5.113 0 0-14.316 2.383-18.037 1.743z"/>
    <path fill="#11122D" d="M137.147 139.399l1.071-2.925c1.964.189 3.941.198 5.906.027 3.89-.254 10.735-1.078 10.735-1.078l1.041 3.428s-11.771 1.807-18.753.548z"/>
    <rect width="4.365" height="3.261" x="143.564" y="139.763" fill="#7A7F87" rx="1.631" transform="rotate(-180 143.564 139.763)"/>
    <path fill="#F7FAEF" d="M150.018 111.589c-.959.727-1.309 2.005-.854 3.118.841 1.827 6.687-.717 6.687-.717s3.428 1.702 4.816 2.599c1.388.896 7.209 7.999 7.209 7.999s-.048 1.63-2.594 3.652c-2.547 2.022-3.886 2.309-3.886 2.309l-2.749-5.597c-.797.626-1.44 1.425-1.879 2.337-.846 1.303-1.339 2.801-1.43 4.35-.083 1.582.207 3.366-.479 3.786-.686.421-11.516 1.362-13.479 1.499-1.963.136-3.793.319-3.581-1.117.277-1.967.272-3.964-.016-5.929-.35-2.337-1.059-5.572 0-8.304 1.058-2.733 2.104-5.177 2.104-5.177l-6.425-1.766s-.652-.049.471-3.039c1.124-2.99 2.339-3.652 2.339-3.652s4.246 1.139 7.791 1.845c2.057.334 4.06.94 5.955 1.804z"/>
    <path fill="#FFB096" d="M147.283 110.811c-.313-.077-.634-.124-.956-.139l-3.454 9.584c-.272.756-.205 1.592.184 2.295.389.704 1.063 1.206 1.85 1.38.835.184 1.708-.02 2.372-.556l10.413-8.387c-3.254-1.876-6.758-3.282-10.409-4.177z"/>
    <path fill="#F7FAEF" d="M148.254 110.95s-1.635 4.102.03 5.623c1.665 1.52 8.305-2.199 8.305-2.199l1.841 1.049-8.066 8.247-6.52 2.126-3.747-4.477 4.024-9.47s.095-1.982 4.133-.899z"/>
    <path fill="#F7FAEF" d="M156.588 114.374l-8.334-3.424-1.917 5.442 2.571 2.082 7.68-4.1z"/>
    <path fill="#11122D" d="M147.891 118.477c-.001.399-.326.722-.726.722-.401 0-.726-.323-.726-.723 0-.399.324-.723.725-.723.193 0 .378.076.514.212s.213.32.213.512zM144.285 124.952c0 .399-.325.723-.725.723-.401 0-.726-.323-.727-.722 0-.4.325-.724.725-.724.401 0 .727.324.727.723zM142.833 132.86c0 .399-.325.723-.725.723-.401 0-.726-.324-.726-.723 0-.4.325-.724.726-.724.4 0 .725.324.725.724z"/>
    <path fill="#D9D1BD" d="M148.144 125.754l1.521 1.349c.14.124.32.194.507.198l2.036.04c.327.006.624-.191.744-.495l1.469-3.731c.158-.403-.041-.858-.446-1.016l-3.558-1.389c-.405-.158-.861.041-1.02.444l-1.468 3.731c-.118.306-.032.653.215.869z"/>
    <path fill="#F7FAEF" d="M150.965 114.123l5.706-2.397.827 4.175-5.545 2.835-2.043-2.839-3.576-.786 1.961-4.757 1.967-.247.703 4.016z"/>
    <path fill="#D9D1BD" d="M150.8 114.123l.836 3.895-4.745-3.061 3.909-.834z"/>
    <path fill="#11122D" d="M166.569 215.527s.331 1.049 1.233 1.063c1.788.035 3.446-.931 4.292-2.502 1.046-2.156 1.19-4.671 2.453-6.576.968-1.43 1.46-3.128 1.407-4.853-.037-1.15-1.046-2.106-2.669-2.473-.969-.206-1.972.144-2.6.907 0 0 1.089.81.794 1.731-.296.922-1.966 6.362-1.966 6.362l-2.944 6.341z"/>
    <path stroke="#11122D" stroke-width=".5" d="M171.662 206.185c-1.519-.925-3.462-.771-4.814.383"/>
    <path fill="#FAC5B0" d="M101.754 178.957c5.401.418 10.652-1.896 13.977-6.158l6.165-7.917c.533-.684.66-1.6.331-2.403-.328-.802-1.061-1.369-1.923-1.487-.861-.118-1.72.231-2.254.916l-6.165 7.916c-2.383 3.054-6.177 4.668-10.038 4.272l-7.631-.778c-.865-.088-1.712.29-2.222.993-.509.702-.604 1.622-.248 2.413.356.79 1.108 1.332 1.973 1.42l7.631.778c.135.014.27.026.404.035z"/>
    <path fill="#FAC5B0" d="M88.95 171.745c-.428.697-.454 1.567-.069 2.288.385.722 1.124 1.186 1.943 1.223.442.021.823.319.948.742.355 1.229 1.644 1.939 2.878 1.584 1.234-.354 1.947-1.639 1.59-2.868-.68-2.324-2.767-3.96-5.193-4.072-.85-.043-1.654.381-2.097 1.103zM84.394 213.732c1.054.082 2.07-.411 2.657-1.289l5.634-8.431c2.774-4.151 7.751-6.273 12.68-5.405l3.134.552c1.589.279 3.104-.777 3.384-2.36.281-1.583-.779-3.093-2.368-3.372l-3.134-.552c-7.214-1.27-14.499 1.835-18.559 7.911l-5.634 8.431c-.573.86-.647 1.958-.194 2.886.453.928 1.366 1.548 2.399 1.629z"/>
    <path fill="#E0A30B" d="M129.973 196.212l-26.783-4.224-1.798 11.324 15.418 2.432c3.014.476 6.094-.261 8.563-2.049 2.468-1.787 4.123-4.479 4.6-7.483z"/>
    <path fill="#FAC5B0" d="M136.993 159.433l-6.492 1.031c-1.787.284-3.599.383-5.407.295l-4.304-.209c-1.475-.071-2.734 1.053-2.824 2.521l-.542 8.777c-.127 2.442-.027 4.89.298 7.314.297 2.385.259 4.8-.112 7.174l-.719 4.588 16.915 2.613.018-.247c.367-4.862.972-9.7 1.772-14.507l3.79-16.813c.154-.68-.041-1.393-.52-1.901-.48-.509-1.182-.747-1.873-.636z"/>
    <path fill="#FAC5B0" d="M128.61 148.468c1.379.344 2.327 1.602 2.275 3.017l-.236 9.774-2.041 1.205c-.683.404-1.51.487-2.26.227-.75-.26-1.347-.837-1.63-1.576l.238-9.853c.023-.891.449-1.723 1.158-2.266.71-.542 1.627-.736 2.496-.528zM133.865 164.76c.651.218 1.364.151 1.963-.184l2.01-1.124c8.062-4.507 14.354-11.601 17.854-20.126l1.87-4.557c.335-.803.213-1.724-.32-2.413-.533-.689-1.395-1.04-2.26-.921-.865.119-1.6.69-1.925 1.498l-1.871 4.557c-3.083 7.511-8.627 13.76-15.73 17.73l-2.01 1.124c-.84.47-1.323 1.388-1.232 2.344.09.955.738 1.767 1.651 2.071v.001z"/>
    <path fill="#FAC5B0" d="M160.267 133.107c-.685-.535-1.603-.669-2.414-.355-.811.315-1.395 1.033-1.537 1.889-.076.462-.439.825-.902.902-1.343.228-2.246 1.497-2.017 2.834.228 1.338 1.502 2.238 2.844 2.01 2.542-.422 4.531-2.413 4.943-4.948.144-.886-.207-1.779-.917-2.332zM131.803 252.702c.083.006.166.009.248.009 1.614-.014 2.91-1.328 2.897-2.935l-.031-3.785c-.107-12.882-.649-25.927-1.61-38.774-.078-1.037-.705-1.954-1.645-2.405-.94-.451-2.05-.369-2.912.216-.863.586-1.346 1.585-1.268 2.622.951 12.72 1.489 25.635 1.593 38.39l.032 3.784c.013 1.511 1.184 2.761 2.696 2.878z"/>
    <path fill="#FDBF0F" d="M116.268 194.877l.624-3.985 16.894 2.639c-.189 2.5-.178 5.011.034 7.509.766 9.159 1.356 18.41 1.754 27.568l-9.578.412c-.349-8.034-.854-16.137-1.49-24.186-.191-2.362-1.984-4.286-4.334-4.65-2.548-.392-4.296-2.767-3.904-5.307z"/>
    <path fill="#FAC5B0" d="M134.906 251.404c.008.418-.161.819-.466 1.106-.305.286-.718.431-1.136.398l-6.206-.472c-.508-.039-.745-1.259-.396-2.128 1.245-.358 2.336-1.117 3.104-2.157.379-.511.996-.791 1.631-.742l.421.032c.324.025.637.134.905.318l1.423.971c.421.288.677.76.688 1.269l.032 1.405zM124.21 184.767c.463.192.732.677.648 1.17v.008c-.084.49-.495.859-.993.89-.092.007-.181-.029-.243-.097-.06-.067-.087-.158-.073-.247l.248-1.493c.015-.091.071-.17.151-.214.081-.044.178-.049.263-.013l-.001-.004zM121.327 168.28l.059-.809c.027-.383-.262-.715-.645-.742-.384-.027-.716.26-.745.642l-.06.809c-.027.382.262.714.645.742.384.028.717-.26.746-.642zM131.711 169.04l.06-.81c.027-.382-.262-.714-.646-.742-.383-.027-.717.261-.745.643l-.059.809c-.027.383.262.714.645.743.384.026.717-.261.745-.643zM133.021 153.799l-.056.096c-1.986 3.399-5.825 5.28-9.74 4.771-.697-.092-1.431-.214-2.204-.367-2.687-.607-4.545-3.053-4.401-5.795l.134-2.14c.066-.853.3-1.686.689-2.45.797-1.539 1.331-3.201 1.579-4.915l.127-.92c.737-4.533 4.647-7.877 9.256-7.916.934.017 1.828.062 2.68.144l.179.019c2.139.26 4.037 1.491 5.142 3.334 1.106 1.843 1.294 4.091.512 6.092l-3.897 10.047z"/>
    <path fill="#11122D" d="M133.02 153.799c-.412-2.276-1.322-4.435-2.665-6.321-.485-.679-.458-1.596.065-2.246.611-.765.66-1.834.122-2.651-1.941-2.988-6.483-4.684-9.992-4.133l.201-1.454c.196-1.415.948-2.695 2.091-3.557 1.143-.862 2.582-1.237 4.002-1.042l5.885.81c2.376.327 4.506 1.629 5.876 3.59 1.369 1.962 1.853 4.405 1.335 6.738-.579 2.584.579-2.317-1.43 6.241l-.01.033c-.564 1.863-2.101 3.271-4.011 3.675l-1.469.317z"/>
    <path fill="#FAC5B0" d="M134.802 148.222c-2.078-.286-3.995 1.161-4.282 3.231l-.02.15c-.075.538.067 1.084.396 1.517.329.433.817.718 1.357.792l.706.097c1.771.244 3.405-.989 3.649-2.753l.077-.553c.081-.578-.072-1.165-.425-1.63-.354-.465-.878-.771-1.458-.851z"/>
    <path fill="#5B331E" d="M70.7 210.489L84.19 221.4l1.54-2.269s.788-1.175.849-1.289c.945-1.779.265-3.985-1.519-4.929l-8.913-4.639c-1.656-.87-3.704-.35-4.739 1.204l-.708 1.011z"/>
    <path fill="#D9D1BD" d="M69.34 212.491l1.36-2.002 14.337 9.663-1.36 2.002-14.336-9.663z"/>
    <path fill="#FAC5B0" d="M86.013 213.798c-.428.631-1.09 1.067-1.841 1.211-.75.145-1.528-.014-2.162-.441-.633-.427-1.07-1.087-1.215-1.835-.145-.748.014-1.523.442-2.154l4.056-5.974c.428-.632 1.09-1.067 1.841-1.212.751-.145 1.529.014 2.162.441.634.427 1.07 1.087 1.216 1.835.144.748-.015 1.523-.443 2.154l-4.056 5.975z"/>
    <path fill="#5B331E" d="M120.424 250.583l17.326 1.285-.035-2.74s-.026-1.413-.042-1.541c-.243-1.998-2.065-3.423-4.071-3.183l-9.976 1.261c-1.858.228-3.24 1.82-3.201 3.684l-.001 1.234z"/>
    <path fill="#D9D1BD" d="M120.424 250.583h17.308V253h-17.308v-2.417z"/>
    <path fill="#FAC5B0" d="M134.893 244.59c.01.761-.284 1.496-.818 2.042-.534.545-1.263.857-2.028.867-.765.01-1.502-.284-2.049-.815-.548-.532-.861-1.259-.871-2.021l-.092-7.212c-.021-1.587 1.253-2.89 2.845-2.911 1.592-.02 2.899 1.25 2.92 2.836l.093 7.214z"/>
    <path fill="#2BA790" d="M111.051 168.105c.139 1.058.49 2.078 1.031 2.999.844 1.308 1.925 2.447 3.188 3.359l1.293-1.493c.253 2.846.314 5.706.185 8.561-.242 4.171-2.246 10.523-2.246 10.523s1.838 2.237 11.04 3.459c9.201 1.222 11.846-.352 11.846-.352-.963-4.975-1.024-10.082-.179-15.079 1.442-7.85 3.334-15.915 3.334-15.915 1.551-.83 3.051-1.75 4.493-2.756.853-.54 1.614-1.211 2.256-1.988-1.523-1.079-2.949-2.288-4.263-3.613L142 154.534s-5.41 3.595-6.89 4.37c-1.404.59-2.873 1.012-4.377 1.257-.327 1.582-1.646 2.77-3.259 2.934-2.832.349-2.717-2.613-2.717-2.613s-3.943-.858-6.167.383c-2.225 1.241-7.539 7.24-7.539 7.24z"/>
    <path fill="#fff" d="M126.232 154.052c-1.153 1.025-2.746 1.403-4.238 1.004-1.492-.399-2.682-1.521-3.165-2.983-.065-.187-.021-.395.114-.541.135-.145.34-.205.532-.155l6.567 1.736c.195.054.343.213.384.412.04.198-.035.402-.194.527z"/>
    <path fill="#11122D" d="M119.475 151.373l.248.064.053 1.179-.48.424c-.191-.305-.347-.632-.464-.972-.064-.187-.021-.393.113-.538.135-.145.338-.206.53-.157z"/>
    <ellipse fill="#231F20" rx="1.13" ry=".788" transform="rotate(-75.088 159.098 -9.046) skewX(.101)"/>
    <path fill="#050505" d="M128.6 145.365c-.069-.156-.171-.294-.299-.406l-.053-.046-.013-.011c-.037-.03-.075-.057-.116-.083-.039-.024-.082-.047-.122-.067l-.064-.03c.026.011.028.011 0 0-.156-.064-.324-.094-.492-.087-.048 0-.096 0-.144.009-.03.007-.06.013-.09.017-.048.011-.094.023-.139.038-.029.012-.058.022-.088.031-.165.089-.37.035-.469-.123-.094-.164-.038-.372.125-.468.948-.452 2.085-.061 2.553.877.09.163.035.369-.124.466-.164.093-.373.038-.469-.123l.004.006zM121.107 143.422c-.046-.083-.094-.165-.147-.248l-.036-.052s-.053-.071-.031-.043c.022.029-.019-.023-.023-.027l-.052-.059c-.032-.035-.066-.069-.1-.101l-.048-.042c-.019-.015-.055-.043-.015-.014-.075-.053-.154-.098-.236-.137.07.033-.012 0-.041-.01s-.078-.017-.117-.027c-.039-.01.064 0 0 0h-.173c-.038 0 .059-.014 0 0l-.052.011-.062.018c-.021.007-.061.025-.021.007.04-.019-.028.015-.03.016l-.045.027c-.034.019-.013.009.007-.008l-.058.053c-.086.091-.215.129-.337.098-.121-.032-.216-.127-.247-.248s.008-.25.1-.335c.348-.32.849-.416 1.292-.247.469.2.849.563 1.069 1.021.062.106.062.236.001.342-.061.106-.174.171-.297.172-.123 0-.236-.065-.297-.171l-.004.004z"/>
    <ellipse fill="#231F20" rx="1.13" ry=".788" transform="rotate(-75.088 154.255 -5.586) skewX(.101)"/>
    <path fill="#CC6E7C" d="M123.747 145.44c.075 1.009.025 2.282-1.109 2.679-.242.042-.467.153-.647.321-.135.192-.174.435-.106.659.213.499.755.773 1.285.649.248-.031.248.355 0 .385-.564.091-1.133-.127-1.49-.57-.29-.407-.29-.952 0-1.359.164-.19.383-.325.627-.386.293-.066.555-.228.745-.459.326-.582.432-1.262.299-1.915-.018-.248.368-.248.387 0l.009-.004z"/>
    <path fill="#FFB096" d="M87.913 109.644c4.25 0 7.779-3.268 8.09-7.49l.818-11.125c.181-2.467-.675-4.897-2.365-6.71-1.69-1.811-4.06-2.84-6.543-2.84-5.307 0-9.61 4.287-9.61 9.576v9.012c0 5.289 4.303 9.577 9.61 9.577z"/>
    <path fill="#FFB096" d="M92.282 108.085c-.77.483-1.677.7-2.583.617-6.538-.604-11.595-5.545-11.58-10.326l.026-9.18c.004-1.54.395-3.053 1.137-4.403l15.871.058c.656 1.377.988 2.885.973 4.409 0 0 .09 8.776-.03 11.039-.226 4.147-1.37 6.259-3.814 7.786z"/>
    <path fill="#050505" d="M79.799 96.77l-1.445.175-1.533-1.12c-.681-1.832-1.114-3.745-1.287-5.69.14-4.979 3.763-9.177 8.681-10.061l.057-.012c2.99-.554 5.892 1.32 6.605 4.265l.138 1.46-9.47 6.116v.688c-.002 1.569-.63 3.072-1.745 4.18h-.001z"/>
    <path fill="#050505" d="M83.89 84.228c1.045-1.634 2.493-2.972 4.206-3.887l.293-.157c2.3-1.229 5.142-.754 6.914 1.155l3.079 3.317c.796.858 1.195 2.01 1.098 3.175-.097 1.166-.681 2.237-1.609 2.953l-1.14 1.477-.199-.872c-.488-1.335-1.207-2.575-2.124-3.663l-.4-.535-10.117-2.963z"/>
    <path fill="#FFB096" d="M77.725 94.401c1.433 0 2.594 1.158 2.595 2.586v2.584h-2.595c-1.433 0-2.594-1.157-2.594-2.585s1.161-2.586 2.594-2.586v.001z"/>
    <ellipse fill="#231F20" rx="1.306" ry=".911" transform="rotate(-87.936 92.97 3.898) skewX(.015)"/>
    <path fill="#050505" d="M93.344 94.626c.083-.078.16-.152.249-.222l.057-.046s.083-.06.048-.037c-.034.024.03-.019.035-.022l.078-.049c.047-.028.095-.053.144-.077l.066-.03c.027-.012.076-.03.023-.011.1-.034.202-.058.307-.073-.089.013.013 0 .048 0 .036 0 .093.008.14.01.046.002-.073-.018 0 0l.06.015c.045.012.087.03.132.043.044.014-.062-.034 0 0l.052.03c.022.013.043.027.063.041.021.015.06.048.02.015-.039-.034.026.027.028.028l.04.044c.03.033.01.016-.005-.01.016.026.031.05.046.082.068.124.196.203.338.208.141.004.275-.067.349-.188.075-.12.079-.27.012-.395-.277-.471-.798-.745-1.345-.708-.586.064-1.13.338-1.528.772-.15.15-.154.392-.008.548.145.155.387.168.549.03l.002.002z"/>
    <ellipse fill="#231F20" rx="1.306" ry=".911" transform="rotate(-87.936 97.161 -.454) skewX(.015)"/>
    <path fill="#CE6C59" d="M90.294 95.346c-.18.674-.243 1.374-.186 2.07.046.52.153 1.06.686 1.285.131.055.266.076.262.242-.014.118-.057.231-.125.33-.133.224-.312.417-.526.566-.426.304-.959.419-1.473.319-.313-.066-.466.413-.15.477.572.123 1.17.035 1.681-.248.51-.259.895-.712 1.065-1.257.085-.27-.007-.563-.23-.738-.12-.083-.271-.107-.394-.186-.12-.087-.201-.216-.228-.36-.165-.78-.131-1.586.097-2.349.083-.31-.397-.46-.478-.15v-.001zM84.852 101.988c.453 1.342 1.5 2.401 2.839 2.872 1.339.472 2.82.303 4.019-.457.27-.165.06-.623-.214-.452-1.077.704-2.422.867-3.636.44-1.215-.427-2.16-1.395-2.555-2.616-.104-.304-.557-.089-.453.212v.001z"/>
    <path fill="#050505" d="M84.562 93.066c.71.897 1.939 1.203 2.988.742.185-.1.255-.331.157-.518-.103-.182-.333-.25-.52-.155-.008 0-.094.04-.051.023.043-.018-.055.019-.053.018-.05.016-.101.03-.153.042-.051.011-.102.022-.154.03-.01 0-.104.013-.054.008.05-.005-.03 0-.037 0-.11.006-.22.004-.33-.007l-.088-.01c-.062-.008.057.011 0 0-.057-.012-.115-.024-.172-.04-.103-.028-.203-.063-.3-.105-.04-.016.04.023-.022-.01l-.062-.034c-.051-.028-.101-.057-.15-.09-.044-.028-.083-.06-.129-.09-.045-.032.033.03-.019-.017l-.052-.047c-.085-.08-.163-.168-.232-.263-.145-.153-.387-.162-.542-.02-.15.147-.159.384-.02.54l-.005.003zM78.145 89.196l-1.717.619v-3.677c-.314.617-.534 1.277-.651 1.96-.186 1.108-2.452 2.061-3.045 1.769.383.426.9.71 1.468.806.376.07.761.073 1.138.007-.14.543-.21 1.102-.208 1.664.036.952.41 1.86 1.055 2.563.465-.29.993-.463 1.54-.505.987-.104.42-5.206.42-5.206zM98.961 91.934c-.182-.544.182-1.905.395-2.752.19-.804.213-1.638.07-2.45-.1-.394-1.641 1.358-2.347 2.187l-1.076-2.532-4.677-2.367-2.356 1.864.197 1.094c1.337-.323 2.749-.093 3.913.637 1.781 1.229 1.827 2.776 2.557 3.959.731 1.182 2.043 2.03 2.99 1.63.494-.133.957-.36 1.365-.666 0 0-.849-.06-1.031-.604zM89.167 86.978c-.904.465-1.62 1.226-2.027 2.156-.791 1.599-2.365 2.667-4.147 2.816-1.448-.048-1.4 1.83-1.841 2.74-.441.911-2.275-3.23-2.275-3.23l2.703-4.482h7.587z"/>
    <path fill="#4E8CCA" d="M192.068 69.686h-2.356v-2.349c0-.62-.248-1.215-.688-1.653-.44-.438-1.036-.685-1.659-.685-.622 0-1.219.247-1.659.685-.44.438-.687 1.033-.687 1.653v2.349h-2.357c-1.296 0-2.346 1.046-2.346 2.338 0 1.29 1.05 2.338 2.346 2.338h2.357v2.348c0 1.291 1.051 2.338 2.346 2.338.623 0 1.219-.246 1.659-.685.44-.438.688-1.033.688-1.653v-2.348h2.357c1.295 0 2.346-1.047 2.346-2.338 0-1.292-1.051-2.338-2.346-2.338h-.001z"/>
    <path fill="#783192" fill-rule="evenodd" d="M0 166.606c0 3.428 2.788 6.208 6.228 6.209 3.44-.002 6.23-2.78 6.232-6.208 0-3.429-2.789-6.208-6.23-6.208-3.44-.001-6.23 2.778-6.23 6.207zm2.582.002c0-2.007 1.632-3.636 3.646-3.637v.003c2.015.001 3.648 1.626 3.652 3.633 0 2.007-1.633 3.635-3.648 3.636-2.015 0-3.65-1.627-3.65-3.635z" clip-rule="evenodd"/>
    <path fill="#D12B5E" d="M110.794 120.595c-.269 0-.505-.18-.574-.439-.07-.259.044-.533.277-.666l2.688-1.547c.184-.113.415-.117.603-.012.189.106.304.306.302.521-.002.216-.121.413-.311.516l-2.688 1.547c-.09.052-.193.08-.297.08zM117.153 116.937c-.27.002-.507-.178-.577-.438-.07-.26.044-.534.278-.668l2.688-1.546c.285-.163.649-.066.813.218.164.284.066.646-.218.81l-2.688 1.546c-.09.051-.192.078-.296.078zM115.316 123.198c-.328 0-.594-.265-.594-.592v-3.094c0-.327.266-.592.594-.592.328 0 .594.265.594.592v3.092c.001.158-.062.309-.173.42-.112.111-.263.174-.421.174zM115.316 115.881c-.328 0-.594-.265-.594-.592v-3.093c0-.327.266-.592.594-.592.328 0 .594.265.594.592v3.093c0 .327-.266.592-.594.592zM119.839 120.595c-.105 0-.207-.029-.297-.082l-2.688-1.547c-.274-.168-.364-.523-.203-.801.161-.277.515-.377.798-.224l2.688 1.553c.234.135.347.408.277.667-.07.26-.306.439-.575.439v-.005zM113.484 116.937c-.104-.001-.206-.029-.296-.082l-2.688-1.546c-.285-.164-.382-.527-.218-.811.164-.283.528-.381.813-.217l2.688 1.546c.234.134.349.408.279.668-.07.259-.307.439-.577.438l-.001.004z"/>
    <path fill="#FDBF0F" fill-rule="evenodd" d="M98.294 245.329c.095.253.337.421.608.422.272-.001.514-.17.608-.424l.931-2.493c.384-1.031 1.2-1.844 2.234-2.227l2.503-.927c.254-.094.423-.336.423-.606 0-.27-.169-.512-.423-.606l-2.503-.928c-1.034-.382-1.85-1.195-2.234-2.226l-.93-2.494c-.095-.253-.338-.421-.609-.421-.27 0-.513.168-.608.421l-.931 2.494c-.383 1.032-1.2 1.845-2.235 2.226l-2.502.928c-.255.094-.423.336-.423.606 0 .27.168.512.423.606l2.502.927c1.036.382 1.852 1.195 2.235 2.227l.931 2.495zm-2.711-5.929l-.867-.321.867-.322c1.388-.512 2.482-1.602 2.996-2.985l.323-.864.321.864c.516 1.382 1.61 2.472 2.996 2.985l.868.322-.868.321c-1.386.514-2.48 1.603-2.996 2.985l-.32.864-.324-.864c-.514-1.383-1.608-2.473-2.996-2.985z" clip-rule="evenodd"/>
    <path fill="#783192" d="M75.411 27.485l-10.136-5.831c-1.375-.79-2.731-1.693-4.157-2.392-.44-.261-.988-.268-1.434-.017-.447.251-.725.721-.729 1.232-.04.503 0 1.026 0 1.53v13.59c0 .44-.04.9 0 1.338.018.516.313.983.773 1.22.46.239 1.014.21 1.448-.072 1.497-.783 2.94-1.692 4.403-2.534l7.305-4.205c1.075-.621 4.582-2.026 2.718-3.711-.905-.825-2.257.518-1.347 1.342l.19-.72-.014.009c-.013 0-.032.024-.045.026-.05.006-.105.07-.154.089-.21.1-.41.216-.603.346l-2.104 1.21-6.042 3.479-4.76 2.737c-.116.068-.427.178-.507.292-.204.296.657.447.647.458.136-.133 0-1.125 0-1.303v-14.71c.022-.137.022-.276 0-.412-.105-.212-.929.165-.647.457.418.314.872.575 1.353.779l2.446 1.407 10.436 6.003c.45.224.996.062 1.25-.37.253-.433.126-.987-.29-1.267z"/>
    <path fill="#783192" d="M75.808 26.816l-6.639-3.82-3.273-1.883c-1.038-.597-2.049-1.237-3.089-1.83-.918-.524-2.003-1.256-3.108-.882-.492.162-.91.494-1.18.935-.264.497-.387 1.056-.355 1.617-.01 2.495.018 4.993.018 7.489V32.2c0 1.258.028 2.52-.007 3.778-.057.564-.004 1.133.157 1.676.175.49.522.9.978 1.154.459.234.982.31 1.49.216.54-.136 1.052-.364 1.515-.673 1.075-.596 2.125-1.237 3.186-1.858 1.076-.629 2.156-1.243 3.234-1.863 1.806-1.04 3.595-2.114 5.438-3.086 1.118-.59 2.83-1.516 2.743-3.002-.083-.987-.837-1.787-1.82-1.932-.978-.054-1.821.673-1.91 1.644-.022.48.17.944.524 1.27.198.19.481.264.747.194s.475-.274.553-.537l.19-.72c.075-.302-.036-.62-.284-.81-.247-.189-.584-.215-.858-.064-.055.03-.1.027.075-.024-.084.031-.163.07-.239.116-.12.062-.24.12-.357.192-.27.165-.545.33-.821.487l-1.756 1.01-3.56 2.047-3.545 2.039c-1.171.675-2.327 1.402-3.525 2.029-.243.097-.467.237-.662.412-.285.303-.335.758-.122 1.115.177.254.437.44.736.524.083.03.159.055.24.077l.063.017c.116.023.057.07-.114-.058.304.175.689.125.937-.124.277-.434.37-.961.258-1.464-.046-.54-.03-1.082-.03-1.626v-4.644c0-3.022-.04-6.05.018-9.07.036-.434-.233-.834-.649-.965-.32-.077-.659-.029-.946.134-.318.127-.554.4-.633.731-.079.332.01.682.236.937.47.382.994.693 1.554.925.657.374 1.31.753 1.966 1.13l8.018 4.613 2.23 1.284c.554.47 1.294.658 2.007.512.592-.213 1.033-.713 1.168-1.326.153-.711-.171-1.44-.804-1.805-.24-.14-.537-.141-.778-.004-.241.137-.391.392-.393.67-.001.276.146.533.386.673.165.102-.083-.114.037.021l.076.082c-.108-.112-.064-.07-.032-.026.098.139-.052-.157 0 0 .033.108.016-.04 0-.06.004.033.004.066 0 .098-.022.165.07-.165 0-.01-.017.046-.032.093-.044.141l.019-.047c.026-.061.025-.061-.004 0 0 0-.105.165-.022.047.067-.095-.078.074-.11.102.134-.127.062-.058.015-.023-.06.045-.14.027.027-.007-.031.01-.064.019-.096.025.228-.02.056-.015 0-.011.17-.012.093.026.019 0-.05-.019-.147-.075-.008.004l-.368-.21-.937-.538-1.695-.975-6.957-4.002-1.67-.96c-.538-.31-1.068-.646-1.626-.916-.213-.104-.429-.2-.634-.319-.054-.031-.108-.065-.161-.1-.1-.065.14.043-.038-.03l-.024-.023c-.127-.13-.078 0 .145.39.006.144-.048.284-.15.386l.03-.03c-.225.195.203-.082-.066.04.027-.01.055-.018.083-.023l-.128.018c.18.008.085-.094-.283-.305-.4-.383-.317-.374-.336-.047-.011.183 0 .37 0 .554v12.452c0 .63-.042 1.276.01 1.903.015.192.034.384.044.578.004.09.008.18.006.27 0 .038-.008.078-.006.115-.006.066 0 .029.015-.11-.037.135.016.052.159-.247l.943-.122c-.11-.061-.231-.103-.356-.124-.062-.018-.123-.045-.184-.06-.103-.024.183.083.043.016-.057-.026-.077-.092-.02-.005l.05.037c.226.241.23.615.008.86.007.03-.165.09-.008.023.088-.037.177-.083.263-.126.263-.132.515-.292.77-.438l3.262-1.877 6.483-3.729 1.846-1.062c.28-.16.561-.318.834-.49.114-.071.278-.127.383-.21.16-.126-.213.083.062-.05.053-.026.101-.043.151-.072l-1.142-.875-.19.72 1.3-.342c-.03-.03-.058-.063-.089-.09.096.082.048.066.02.016-.075-.13.016.023.01.04.005-.013-.026-.08-.027-.1.02.233.008.095.012.058.016-.139-.019.05-.015.06.005-.033.013-.065.023-.096.022-.063.021-.063-.004 0 0 0 .056-.093.052-.083-.014.027-.12.118-.027.039.026-.022.05-.046.072-.072.042-.053.094-.025-.037.027.072-.03.225-.083.041-.04.032-.014.064-.025.098-.032.145 0-.13-.012-.03 0 .035.004.07.004.105 0 .104-.017-.155-.017-.05-.006.026 0 .143.04.038 0-.105-.04.01.007.035.023.026.017.12.09.047.028-.074-.06.025.03.041.046.042.045.202.239.094.083.04.057.076.115.112.174.018.026.032.053.043.082-.008.033-.044-.178-.03-.057.006.028.013.056.023.083.045.129-.028-.083-.008-.083v.083c.015.172-.044-.045.014-.043 0 0-.038.147-.04.16-.018.11.09-.157-.006.01-.03.053-.06.103-.092.153-.014.027-.032.053-.053.075.048-.034.103-.12.018-.027-.086.092-.184.195-.285.285-.053.047-.11.09-.166.137-.077.071.116-.082.03-.021-.038.026-.074.055-.112.082-.503.345-1.03.652-1.578.92-1.738.9-3.408 1.934-5.102 2.91-1.943 1.117-3.87 2.264-5.815 3.38-.48.276-.964.554-1.46.8.13-.064-.103.034-.141.044-.038.01-.083.02-.13.03.03-.008.16-.005.014 0h-.248c.032 0 .16.038.026 0-.046-.017-.095-.031-.144-.04-.097-.012.102.068.022.009-.033-.02-.068-.04-.104-.057-.023-.013-.122-.089-.042-.024.08.065-.016-.019-.034-.037-.018-.018-.106-.11-.04-.034.068.075-.016-.024-.03-.047l-.062-.11c-.042-.069.026.112-.012-.026-.028-.09-.05-.18-.068-.272.024.144 0-.011 0-.036 0-.064-.007-.127-.009-.19-.007-.288.009-.578.014-.864.043-2.275 0-4.555 0-6.83v-6.845c0-.544-.042-1.09 0-1.633-.011.146.024-.113.034-.15l.042-.13c-.011.033-.07.122 0 .005.032-.052.166-.224.053-.104l.083-.09c.017-.016.148-.119.059-.055-.114.082.215-.115.083-.052-.09.044.14-.034.165-.045.089-.043-.124-.01-.024 0 .05.006.107-.007.158-.005.052.002.083 0 .13.008-.115-.012-.051-.006.024.014l.133.04c.117.034-.098-.049.017 0s.227.111.338.165c.246.126.49.257.731.392.957.534 1.882 1.121 2.826 1.675.993.578 1.986 1.146 2.985 1.72l5.965 3.431 1.48.851c.37.216.847.092 1.064-.278.217-.37.092-.844-.279-1.06l.023.01z"/>
    <path fill="#783192" d="M83.143 28.69c-.002 7.298-4.608 13.808-11.505 16.263-6.898 2.455-14.6.326-19.243-5.32-4.643-5.645-5.224-13.588-1.453-19.845 3.772-6.257 11.082-9.477 18.265-8.045 8.07 1.675 13.874 8.732 13.936 16.946.03.502.447.894.952.894.505 0 .922-.392.952-.894 0-8.114-5.126-15.35-12.8-18.068-7.672-2.718-16.232-.329-21.372 5.965-5.14 6.294-5.748 15.13-1.519 22.064 4.23 6.934 12.382 10.465 20.355 8.816 8.885-1.923 15.251-9.718 15.336-18.777-.03-.502-.447-.894-.952-.894-.505 0-.922.392-.952.894z"/>
    <path fill="#D55833" d="M192.222.088c-6.282.79-10.737 6.498-9.958 12.76l.712 5.67 1.897-.237-.712-5.67c-.448-3.389.96-6.757 3.69-8.826 2.73-2.07 6.364-2.522 9.521-1.186 3.158 1.335 5.355 4.254 5.758 7.649l.712 5.67-1.897.236-.712-5.67c-.541-4.16-4.355-7.102-8.532-6.582-4.177.52-7.147 4.308-6.643 8.472l.711 5.67 1.897-.236-.711-5.67c-.255-2.026.595-4.033 2.229-5.266 1.634-1.232 3.803-1.502 5.691-.708 1.888.793 3.207 2.53 3.461 4.556l.721 5.741c.127 1.005 1.046 1.717 2.054 1.592l2.04-.254c1.007-.127 1.722-1.042 1.597-2.047l-.721-5.742c-.793-6.259-6.521-10.697-12.805-9.922z"/>
    <path fill="#D55833" fill-rule="evenodd" d="M176.91 35.784l-5.592.697v-.001c-1.205 4.066-5.134 6.71-9.369 6.303-4.235-.406-7.585-3.749-7.989-7.97-.389-4.641 2.853-8.807 7.462-9.586 3.59-.567 7.164 1.108 9.015 4.225l8.677-1.081-.219-1.75 1.763-.22 1.324 10.541-1.763.22-.221-1.763-1.324.164-1.029-1.06-.735 1.28zm-18.55 3.715c1.499 1.197 3.421 1.739 5.327 1.501 2.985-.379 5.408-2.586 6.054-5.514l.135-.611 5.932-.742 1.469-2.563 2.057 2.123.441-.055-.441-3.514-9.899 1.237-.283-.559c-1.379-2.761-4.398-4.31-7.455-3.826-3.685.624-6.278 3.956-5.967 7.669.182 1.906 1.131 3.657 2.63 4.854z" clip-rule="evenodd"/>
    <path fill="#D55833" d="M191.141 17.185l-.015-.117-1.764.219-1.762.22-1.764.219-14.105 1.758-1.763.22-1.763.218-1.764.22.015.119c-1.174.433-2.122 1.323-2.626 2.466l1.629.708c.4-.908 1.248-1.54 2.235-1.665l2.496-.31 17.628-2.197 2.497-.311c.741-.094 1.489.11 2.079.567.59.457.973 1.129 1.066 1.867l2.167 17.275c.094.738-.111 1.484-.569 2.071-.459.588-1.133.97-1.874 1.063l-22.625 2.819c-.929.116-1.855-.236-2.47-.938l-1.337 1.165c1.003 1.146 2.513 1.72 4.028 1.53l22.625-2.818c2.514-.317 4.297-2.601 3.986-5.107l-2.168-17.275c-.266-2.112-1.957-3.764-4.082-3.986z"/>
    <ellipse cx="162.572" cy="34.001" stroke="#D55833" stroke-width="1.26" rx="2.652" ry="2.642"/>
    <path fill="#2BA790" d="M117.348 19.943l15.343 2.551c.325.049.628-.171.682-.494.054-.323-.161-.629-.484-.688l-15.34-2.552c-.325-.048-.628.172-.682.495-.054.323.161.629.484.688h-.003zM116.143 27.144l15.342 2.551c.325.048.629-.172.682-.494.054-.323-.161-.629-.484-.688L116.34 25.96c-.324-.048-.628.172-.682.495-.054.322.162.628.485.688zM114.927 34.4l15.342 2.55c.325.049.628-.171.682-.494.054-.323-.162-.629-.484-.688l-15.342-2.551c-.325-.049-.628.171-.682.494-.054.322.161.629.484.688zM113.64 42.085l15.342 2.551c.326.052.633-.168.688-.493.054-.324-.164-.632-.489-.69l-15.343-2.55c-.325-.049-.628.171-.682.494-.054.322.161.629.484.688z"/>
    <path fill="#2BA790" d="M133.77 50.39c2.774-2.601 2.439-6.62 2.352-10.091-.126-2.757-.05-5.518.228-8.263.315-2.461.827-4.893 1.529-7.273.513-1.784 1.127-3.537 1.645-5.319.433-1.148.603-2.378.496-3.6-.303-1.692-1.712-2.032-3.231-2.253-2.989-.434-5.987-.79-8.985-1.155-6.889-.838-13.793-1.737-20.474-3.673-.491-.075-.953.255-1.039.742-2.828 12.316-4.923 24.787-6.276 37.348-.041.276.046.555.238.758.192.203.466.308.745.284 5.598-.56 11.248.278 16.438 2.441 2.754 1.216 5.469 2.482 8.538 2.572 2.748.166 5.461-.674 7.632-2.36.87-.753-.171-2.226-1.049-1.464-2.13 1.842-5.325 2.33-8.041 1.89-2.716-.44-5.081-1.821-7.608-2.81-5.14-1.89-10.644-2.594-16.097-2.06l.984 1.042c1.353-12.562 3.449-25.033 6.277-37.348l-1.039.742c5.56 1.515 11.229 2.597 16.957 3.237 2.865.367 5.736.696 8.601 1.062 1.302.165 2.602.34 3.9.528.506.005 1.005.103 1.474.29.177.107.166.138.229.299.291.797-.112 1.995-.339 2.82-.455 1.65-1.027 3.26-1.517 4.895-1.402 4.622-2.095 9.429-2.056 14.257.016 2.254.218 4.535.039 6.784-.026 1.704-.72 3.33-1.934 4.53-.849.79.548 1.931 1.383 1.148z"/>
    <path fill="#2BA790" d="M103.235 46.843l-1.306 7.239c-.043.276.044.556.236.76.192.204.468.308.747.282 4.266-.772 8.638-.763 12.901.026 2.798.5 5.548 1.24 8.22 2.208 2.565.94 4.985 2.269 7.655 2.925 2.06.506 4.847.763 6.662-.584 1.143-1.014 1.914-2.378 2.19-3.876.512-2.187.821-4.415.925-6.658.23-2.943.388-5.89.637-8.832.554-6.782 1.705-13.502 3.438-20.083.078-.49-.254-.951-.744-1.035l-6.042-.762c-1.149-.145-1.451 1.628-.297 1.774l6.041.762-.744-1.035c-1.47 5.52-2.515 11.144-3.128 16.822-.589 5.469-.583 11.024-1.413 16.465-.228 1.491-.488 3.241-1.428 4.48-1.235 1.629-3.934 1.225-5.659.82-2.559-.603-4.883-1.92-7.341-2.818-2.608-.952-5.288-1.696-8.014-2.227-4.633-.935-9.4-.99-14.054-.165l.984 1.043 1.306-7.24c.063-.48-.267-.925-.747-1.005-.48-.08-.937.234-1.034.71l.009.004zM113.35 15.637c-.883-.083-1.766-.413-2.376.456-.461.698-.569 1.57-.292 2.36.123.36.397.65.751.794.354.144.753.128 1.094-.044.818-.592 1.361-1.49 1.503-2.487l-1.187-.197c-.083 1.231-.376 3.42 1.423 3.54.765.051.971-1.13.198-1.182-.817-.055-.47-1.607-.434-2.16.048-.323-.173-.626-.496-.68-.324-.053-.631.161-.691.483-.083.396-.235.776-.45 1.12-.108.17-.186.342-.399.38-.276.05-.268-.208-.257-.478.01-.254.107-.757.372-.87.223-.094.791.126 1.043.148.766.069.971-1.113.198-1.183zM110.698 22.404c-.323 1.64-.551 3.297-.68 4.962-.049.324.172.626.496.68.324.054.631-.16.691-.482.053-.296.082-.6.148-.893l.117-.428c1.031-.028 1.004-.07-.083-.126-.628-.445-1.401.474-.769.922.675.48 1.628.924 2.367.28.55-.602.613-1.502.152-2.174-.447-.619-1.3-.785-1.947-.379-.919.536-1.003 1.665-1.171 2.6l1.186.198c.13-1.666.357-3.323.681-4.963.149-.758-1.038-.954-1.187-.197h-.001zM111.569 31.43c-.636-.135-1.557-.524-2.152-.106-.479.441-.742 1.067-.721 1.717-.01 1.585 1.73 1.979 2.951 1.495.311-.118.467-.464.349-.774-.119-.309-.466-.465-.777-.347-.475.188-1.376.3-1.318-.466.01-.161.053-.318.127-.462.107-.183-.063-.1.165-.126.173.014.343.05.507.108l.674.144c.758.165.954-1.022.198-1.183h-.003z"/>
    <path fill="#2BA790" d="M110.418 39.664c-1.241-.216-1.903-.253-2.317 1.1-.26.852-.05 2.061 1.054 2.129 1.15.074 1.66-1.333 1.986-2.175.381-.974.961-2.187-.115-2.943-.167-.132-.392-.167-.592-.093-.2.074-.346.246-.386.455-.378 1.745-.31 3.556.196 5.268.213.742 1.337.312 1.124-.426-.433-1.513-.479-3.11-.134-4.644l-.978.362c.433.304-.279 1.94-.514 2.272l-.146.29c-.457.11-.539-.034-.243-.432.219-.192.623-.022.861.02.324.047.628-.173.682-.495.054-.323-.162-.629-.484-.688h.006z"/>
</svg>
